<?xml version="1.0" encoding="utf-8"?>
<!-- Generator: Adobe Illustrator 24.0.0, SVG Export Plug-In . SVG Version: 6.00 Build 0)  -->
<svg version="1.1" xmlns="http://www.w3.org/2000/svg" xmlns:xlink="http://www.w3.org/1999/xlink" x="0px" y="0px"
	 viewBox="0 0 180 182.23" style="enable-background:new 0 0 180 182.23;" xml:space="preserve">
<style type="text/css">
	.st0{fill:#E2E6ED;}
	.st1{fill:#FFFFFF;}
	.st2{fill:#E1E4EA;}
	.st3{clip-path:url(#SVGID_3_);fill:url(#SVGID_4_);}
	.st4{clip-path:url(#SVGID_3_);fill:url(#SVGID_5_);}
	.st5{clip-path:url(#SVGID_3_);fill:url(#SVGID_6_);}
	.st6{clip-path:url(#SVGID_3_);fill:url(#SVGID_7_);}
	.st7{clip-path:url(#SVGID_3_);fill:url(#SVGID_8_);}
	.st8{clip-path:url(#SVGID_3_);fill:url(#SVGID_9_);}
	.st9{clip-path:url(#SVGID_3_);fill:url(#SVGID_10_);}
	.st10{clip-path:url(#SVGID_3_);fill:url(#SVGID_11_);}
	.st11{clip-path:url(#SVGID_3_);fill:url(#SVGID_12_);}
	.st12{fill:#2B2D3A;}
	.st13{fill:#474B64;}
	.st14{fill:#242865;}
	.st15{fill:none;stroke:#98B5D8;stroke-miterlimit:10;}
	.st16{fill:#F1B40C;}
	.st17{fill:#98B5D8;}
	.st18{fill:#F4F4F4;}
	.st19{fill:#DD5C3E;}
	.st20{fill:#56B206;}
	.st21{clip-path:url(#SVGID_14_);}
	.st22{fill:#3D3C6E;}
	.st23{fill:#B22435;}
	.st24{fill:#FEFEFE;}
	.st25{clip-path:url(#SVGID_16_);fill:#B22435;}
	.st26{clip-path:url(#SVGID_16_);fill:#F1B40C;}
	.st27{clip-path:url(#SVGID_18_);}
	.st28{clip-path:url(#SVGID_20_);fill:#B22435;}
	.st29{clip-path:url(#SVGID_20_);fill:#F1B40C;}
	.st30{clip-path:url(#SVGID_23_);fill:url(#SVGID_24_);}
	.st31{clip-path:url(#SVGID_23_);fill:url(#SVGID_25_);}
	.st32{clip-path:url(#SVGID_23_);fill:url(#SVGID_26_);}
	.st33{clip-path:url(#SVGID_23_);fill:url(#SVGID_27_);}
	.st34{clip-path:url(#SVGID_23_);fill:url(#SVGID_28_);}
	.st35{clip-path:url(#SVGID_23_);fill:url(#SVGID_29_);}
	.st36{clip-path:url(#SVGID_23_);fill:url(#SVGID_30_);}
	.st37{clip-path:url(#SVGID_23_);fill:url(#SVGID_31_);}
	.st38{fill:#1B2026;}
	.st39{fill:#6A7C91;}
	.st40{fill:none;stroke:#6A7C91;stroke-miterlimit:10;}
	.st41{fill:#7FA7FF;}
	.st42{fill:#FFBC00;}
	.st43{clip-path:url(#SVGID_34_);fill:url(#SVGID_35_);}
	.st44{clip-path:url(#SVGID_34_);fill:url(#SVGID_36_);}
	.st45{clip-path:url(#SVGID_34_);fill:url(#SVGID_37_);}
	.st46{clip-path:url(#SVGID_34_);fill:url(#SVGID_38_);}
	.st47{clip-path:url(#SVGID_34_);fill:url(#SVGID_39_);}
	.st48{clip-path:url(#SVGID_34_);fill:url(#SVGID_40_);}
	.st49{clip-path:url(#SVGID_34_);fill:url(#SVGID_41_);}
	.st50{clip-path:url(#SVGID_34_);fill:url(#SVGID_42_);}
	.st51{clip-path:url(#SVGID_34_);fill:url(#SVGID_43_);}
	.st52{fill:none;}
	.st53{fill:#98B5D8;stroke:#98B5D8;stroke-width:5;stroke-miterlimit:10;}
	.st54{fill:#D1D5DE;}
	.st55{clip-path:url(#SVGID_46_);fill:url(#SVGID_47_);}
	.st56{clip-path:url(#SVGID_46_);fill:url(#SVGID_48_);}
	.st57{clip-path:url(#SVGID_46_);fill:url(#SVGID_49_);}
	.st58{clip-path:url(#SVGID_46_);fill:url(#SVGID_50_);}
	.st59{clip-path:url(#SVGID_46_);fill:url(#SVGID_51_);}
	.st60{clip-path:url(#SVGID_46_);fill:url(#SVGID_52_);}
	.st61{clip-path:url(#SVGID_46_);fill:url(#SVGID_53_);}
	.st62{clip-path:url(#SVGID_46_);fill:url(#SVGID_54_);}
	.st63{clip-path:url(#SVGID_46_);fill:url(#SVGID_55_);}
	.st64{display:none;}
	.st65{display:inline;opacity:0.3;}
</style>
<g id="Capa_3">
	<g>
		<defs>
			<circle id="SVGID_13_" cx="91.36" cy="92.04" r="88.64"/>
		</defs>
		<clipPath id="SVGID_2_">
			<use xlink:href="#SVGID_13_"  style="overflow:visible;"/>
		</clipPath>
		<g id="XlPKvW_1_" style="clip-path:url(#SVGID_2_);">
			<g>
				<path class="st22" d="M-38.97,98.31c0-32.36,0.01-64.72-0.03-97.07C-39,0.17-38.74,0-37.73,0C7.98,0.03,53.69,0.03,99.41,0.03
					c0.01,4.68,0.03,9.36,0.04,14.04c0,4.65,0,9.3,0,13.95c0,4.69,0,9.37,0,14.06c0,4.66,0,9.31,0,13.97c0,4.68,0,9.35,0.01,14.03
					c0,4.68,0,9.36,0,14.04c-0.02,4.64-0.04,9.28-0.06,13.93c-0.6,0.24-1.23,0.12-1.85,0.12C52.7,98.17,7.86,98.17-36.98,98.18
					C-37.64,98.18-38.32,98.04-38.97,98.31z M-7.21,13.91c1.89-1.89,3.79-1.91,5.68-0.01c0.04,0.11,0.09,0.25,0.23,0.14
					c0.04-0.03-0.03-0.21-0.04-0.32c-0.16-0.55-0.23-1.15-0.49-1.64c-0.67-1.24-0.26-2,0.89-2.61c0.56-0.3,1.03-0.76,1.87-1.39
					c-1.53,0-2.82,0.34-3.74-0.09C-3.89,7.49-3.66,5.9-4.2,4.87C-4.23,4.81-4.35,4.8-4.52,4.74C-4.77,5.5-5.06,6.24-5.26,7.02
					c-0.2,0.8-0.57,1.2-1.47,1.1C-7.58,8.03-8.44,8.1-9.3,8.1c-0.14,0.13-0.27,0.26-0.41,0.4c3.37,0.83,3.5,2.8,2.31,5.23
					c-0.02,0.11-0.09,0.29-0.05,0.33C-7.32,14.16-7.26,14.02-7.21,13.91z M-24.59,13.9c0.04,0.11,0.09,0.25,0.23,0.14
					c0.04-0.03-0.03-0.21-0.04-0.32c-0.16-0.55-0.23-1.15-0.49-1.64c-0.67-1.24-0.26-2,0.89-2.61c0.56-0.3,1.03-0.76,1.87-1.39
					c-1.53,0-2.82,0.34-3.74-0.09c-1.07-0.5-0.84-2.09-1.38-3.12c-0.03-0.06-0.15-0.07-0.32-0.14c-0.25,0.76-0.54,1.51-0.74,2.28
					c-0.2,0.8-0.57,1.2-1.47,1.1c-0.85-0.09-1.72-0.02-2.57-0.02c-0.09,0.11-0.18,0.23-0.26,0.34c3,0.96,3.45,2.82,2.16,5.28
					c-0.02,0.11-0.09,0.29-0.05,0.33c0.13,0.11,0.2-0.02,0.24-0.14C-28.38,12.02-26.49,12-24.59,13.9z M15.85,13.91
					c1.89-1.89,3.79-1.91,5.68-0.01c0.04,0.11,0.09,0.25,0.23,0.14c0.04-0.03-0.03-0.21-0.04-0.32c-0.16-0.55-0.23-1.15-0.49-1.64
					c-0.67-1.24-0.26-2,0.89-2.61c0.56-0.3,1.03-0.76,1.55-1.15c-2.92,0.57-4.43-0.65-4.81-3.45c-0.01-0.04-0.15-0.07-0.32-0.13
					C18.29,5.5,18,6.24,17.81,7.02c-0.2,0.8-0.57,1.2-1.47,1.1c-0.85-0.09-1.72-0.02-2.57-0.02c-0.09,0.11-0.18,0.23-0.26,0.34
					c3,0.96,3.45,2.82,2.16,5.28c-0.02,0.11-0.09,0.29-0.05,0.33C15.75,14.16,15.81,14.02,15.85,13.91z M38.91,13.91
					C40.8,12.02,42.7,12,44.6,13.9c0.04,0.11,0.09,0.25,0.23,0.14c0.04-0.03-0.03-0.21-0.04-0.32c-0.16-0.55-0.23-1.15-0.49-1.64
					c-0.67-1.24-0.26-2,0.89-2.61c0.56-0.3,1.03-0.76,1.55-1.15c-2.92,0.57-4.43-0.65-4.81-3.45c-0.01-0.04-0.15-0.07-0.32-0.13
					c-0.25,0.76-0.54,1.51-0.74,2.28c-0.2,0.8-0.57,1.2-1.47,1.1c-0.85-0.09-1.72-0.02-2.57-0.02c-0.09,0.11-0.18,0.23-0.26,0.34
					c3,0.96,3.45,2.82,2.16,5.28c-0.02,0.11-0.09,0.29-0.05,0.33C38.81,14.16,38.87,14.02,38.91,13.91z M67.66,13.9
					c0.04,0.11,0.09,0.25,0.23,0.14c0.04-0.03-0.03-0.21-0.04-0.32c-0.16-0.55-0.23-1.15-0.49-1.64c-0.67-1.24-0.26-2,0.89-2.61
					c0.56-0.3,1.03-0.76,1.55-1.15c-2.92,0.57-4.43-0.65-4.81-3.45c-0.01-0.04-0.15-0.07-0.32-0.13c-0.25,0.76-0.54,1.51-0.74,2.28
					c-0.2,0.8-0.57,1.2-1.47,1.1c-0.85-0.09-1.72-0.02-2.57-0.02c-0.09,0.11-0.18,0.23-0.26,0.34c3,0.96,3.45,2.82,2.16,5.28
					c-0.02,0.11-0.09,0.29-0.05,0.33c0.13,0.11,0.2-0.02,0.24-0.14C63.87,12.02,65.76,12,67.66,13.9z M90.72,13.9
					c0.04,0.11,0.09,0.25,0.23,0.14c0.04-0.03-0.03-0.21-0.04-0.32c-0.16-0.55-0.23-1.15-0.49-1.64c-0.67-1.24-0.26-2,0.89-2.61
					c0.56-0.3,1.03-0.76,1.55-1.15c-2.92,0.57-4.43-0.65-4.81-3.45c-0.01-0.04-0.15-0.07-0.32-0.13c-0.25,0.76-0.54,1.51-0.74,2.28
					c-0.2,0.8-0.57,1.2-1.47,1.1c-0.85-0.09-1.72-0.02-2.57-0.02c-0.09,0.11-0.18,0.23-0.26,0.34c3,0.96,3.45,2.82,2.16,5.28
					c-0.02,0.11-0.09,0.29-0.05,0.33c0.13,0.11,0.2-0.02,0.24-0.14C86.93,12.02,88.82,12,90.72,13.9z M-13.07,23.71
					c0.04,0.12,0.1,0.25,0.24,0.14c0.04-0.04-0.03-0.21-0.05-0.33c-0.19-0.64-0.33-1.3-0.59-1.92c-0.39-0.91-0.33-1.57,0.65-2.09
					c0.68-0.36,1.26-0.92,2.22-1.65c-1.59,0-2.92,0.37-3.82-0.1c-1.01-0.52-0.8-2.12-1.37-3.15c-0.02-0.03-0.08-0.03-0.25-0.08
					c-0.24,0.69-0.56,1.37-0.71,2.08c-0.22,0.99-0.67,1.45-1.75,1.31c-0.76-0.1-1.55-0.02-2.33-0.02c-0.1,0.1-0.2,0.21-0.3,0.31
					c3.06,1.04,3.49,2.94,2.1,5.42c-0.03,0.05,0.04,0.16,0.16,0.53C-17.05,21.47-15.08,21.89-13.07,23.71z M9.99,23.71
					c0.04,0.12,0.1,0.25,0.24,0.14c0.04-0.04-0.03-0.21-0.05-0.33c-0.19-0.64-0.33-1.3-0.59-1.92c-0.39-0.91-0.33-1.57,0.65-2.09
					c0.68-0.36,1.26-0.92,1.88-1.39c0.03-0.14,0.07-0.29,0.1-0.43c-3.13,1.05-4.52-0.33-4.94-3.08c0-0.02-0.08-0.03-0.25-0.08
					c-0.24,0.69-0.56,1.37-0.71,2.08c-0.22,0.99-0.67,1.45-1.75,1.31c-0.76-0.1-1.55-0.02-2.33-0.02c-0.1,0.1-0.2,0.21-0.3,0.31
					c3.06,1.04,3.49,2.94,2.1,5.42c-0.03,0.05,0.04,0.16,0.16,0.53C6.01,21.47,7.98,21.89,9.99,23.71z M33.06,23.71
					c0.04,0.12,0.1,0.25,0.24,0.14c0.04-0.04-0.03-0.21-0.05-0.33c-0.19-0.64-0.33-1.3-0.59-1.92c-0.39-0.91-0.33-1.57,0.65-2.09
					c0.68-0.36,1.26-0.92,2.22-1.65c-1.59,0-2.92,0.37-3.82-0.1c-1.01-0.52-0.8-2.12-1.37-3.15c-0.02-0.03-0.08-0.03-0.25-0.08
					c-0.24,0.69-0.56,1.37-0.71,2.08c-0.22,0.99-0.67,1.45-1.75,1.31c-0.76-0.1-1.55-0.02-2.66-0.02c1.22,0.94,2.5,1.46,2.92,2.37
					c0.48,1.02-0.56,2.2-0.79,3.36c-0.02,0.08,0.05,0.17,0.16,0.54C29.07,21.47,31.04,21.89,33.06,23.71z M79.18,23.71
					c0.04,0.12,0.1,0.25,0.24,0.14c0.04-0.04-0.03-0.21-0.05-0.33c-0.19-0.64-0.33-1.3-0.59-1.92c-0.39-0.91-0.33-1.57,0.65-2.09
					c0.68-0.36,1.26-0.92,1.88-1.39c0.03-0.14,0.07-0.29,0.1-0.43c-3.13,1.05-4.52-0.33-4.94-3.08c0-0.02-0.08-0.03-0.25-0.08
					c-0.24,0.68-0.55,1.36-0.71,2.08c-0.22,0.99-0.67,1.45-1.75,1.31c-0.76-0.1-1.55-0.02-2.33-0.02c-0.1,0.1-0.2,0.21-0.3,0.31
					c3.06,1.04,3.49,2.94,2.1,5.42c-0.03,0.05,0.04,0.16,0.16,0.53C75.2,21.47,77.17,21.89,79.18,23.71z M56.12,23.71
					c0.04,0.12,0.1,0.25,0.24,0.14c0.04-0.04-0.03-0.21-0.05-0.33c-0.19-0.64-0.33-1.3-0.59-1.92c-0.39-0.91-0.33-1.57,0.65-2.09
					c0.68-0.36,1.26-0.92,1.88-1.39c0.03-0.14,0.07-0.29,0.1-0.43c-3.13,1.05-4.52-0.33-4.94-3.08c0-0.02-0.08-0.03-0.25-0.08
					c-0.24,0.68-0.55,1.36-0.71,2.08c-0.22,0.99-0.67,1.45-1.75,1.31c-0.76-0.1-1.55-0.02-2.33-0.02c-0.1,0.1-0.2,0.21-0.3,0.31
					c3.06,1.04,3.49,2.94,2.1,5.42c-0.03,0.05,0.04,0.16,0.16,0.53C52.14,21.47,54.11,21.89,56.12,23.71z M76.22,73.33
					c-0.19,0.57-0.4,1.06-0.5,1.57c-0.27,1.42-0.95,2.17-2.52,1.87c-0.54-0.1-1.18-0.16-2.13,0.29c3.27,1.06,3.46,3.04,2.18,5.48
					c-0.01,0.03,0.03,0.09,0.09,0.23c0.39-0.27,0.77-0.51,1.14-0.78c1.88-1.36,1.88-1.36,3.69-0.05c0.39,0.28,0.79,0.54,1.42,0.97
					c-0.36-1.1-0.55-1.89-0.87-2.63c-0.38-0.86-0.14-1.38,0.63-1.87c0.68-0.43,1.47-0.8,2.11-1.94c-3.24,1.15-4.51-0.34-4.97-2.99
					C76.49,73.46,76.42,73.44,76.22,73.33z M48.23,76.87c1.05,0.83,2.48,1.4,2.75,2.32c0.29,1-0.48,2.32-0.79,3.5
					c2.08-2.16,4.11-2.37,6.17,0.25c-0.28-1.38-1.04-2.59-0.84-3.62c0.22-1.11,1.89-1.4,2.82-2.56c-0.8,0-1.41-0.07-2,0.01
					c-1.36,0.21-2.14-0.27-2.37-1.68c-0.09-0.58-0.37-1.14-0.57-1.7c-0.16-0.16-0.32-0.31-0.47-0.47
					C53.25,76.78,50.96,76.99,48.23,76.87z M30.35,73.38c-0.13-0.1-0.25-0.2-0.38-0.3c0.06,3.5-2.02,3.99-4.83,3.89
					c3.01,1.19,3.51,3.17,1.87,5.97c2.2-2.49,4.23-2.52,6.51,0.02c-2.01-2.9-0.84-4.61,1.56-5.94c0.02-0.01,0-0.08-0.02-0.26
					c-0.78,0-1.58-0.07-2.37,0.02c-0.93,0.1-1.41-0.22-1.61-1.15C30.91,74.85,30.6,74.12,30.35,73.38z M7.45,73.45
					c-0.42-0.06-0.54,0.09-0.56,0.29c-0.23,2.81-1.96,3.42-4.39,3.03c-0.05-0.01-0.13,0.1-0.29,0.23c0.7,0.52,1.34,1.09,2.07,1.51
					c0.72,0.42,0.85,0.9,0.55,1.64c-0.33,0.82-0.56,1.67-0.93,2.79c0.52-0.34,0.76-0.49,0.99-0.66c2.29-1.63,2.29-1.63,4.62,0.03
					c0.21,0.15,0.39,0.42,0.79,0.33c-0.05-0.19-0.1-0.36-0.15-0.53c-0.89-2.94-0.89-2.94,1.49-4.75c0.17-0.13,0.46-0.2,0.3-0.71
					C9.21,77.37,7.45,76.49,7.45,73.45z M-12.67,82.94c-1.83-2.84-0.84-4.61,1.62-5.92c0.02-0.01,0-0.08-0.01-0.27
					c-0.73,0-1.49-0.07-2.22,0.02c-1.04,0.12-1.58-0.24-1.79-1.28c-0.14-0.72-0.47-1.4-0.84-2.48c-0.37,1.11-0.69,1.85-0.85,2.61
					c-0.2,0.92-0.68,1.22-1.6,1.16c-0.78-0.05-1.6-0.19-2.72,0.25c3.1,1.14,3.62,3.1,1.97,5.91
					C-16.92,80.45-14.89,80.41-12.67,82.94z M87.87,82.95c-0.26,3.27-2.02,4.09-4.71,3.62c-0.05-0.01-0.13,0.1-0.27,0.23
					c0.69,0.5,1.3,1.03,1.99,1.43c0.81,0.47,0.96,1.04,0.6,1.88c-0.32,0.76-0.52,1.56-0.89,2.7c0.99-0.71,1.69-1.14,2.29-1.68
					c0.69-0.61,1.26-0.65,1.97-0.01c0.61,0.55,1.32,0.97,2.28,1.66c-0.37-1.14-0.57-1.93-0.88-2.67c-0.35-0.84-0.2-1.4,0.61-1.88
					c0.7-0.41,1.34-0.95,2-1.43c0-0.14,0-0.28,0-0.42C89.9,87.2,88.18,86.26,87.87,82.95z M59.61,86.83c3.1,1.13,3.64,3.09,1.99,5.9
					c2.2-2.44,4.23-2.52,6.45,0.01c-1.86-2.86-0.8-4.61,1.63-5.92c0.01-0.01-0.01-0.08-0.03-0.26c-0.68,0-1.39-0.08-2.08,0.02
					c-1.15,0.15-1.78-0.22-1.98-1.42c-0.11-0.67-0.44-1.31-0.8-2.33c-0.37,1.11-0.69,1.85-0.85,2.62c-0.2,0.94-0.7,1.19-1.62,1.14
					C61.55,86.53,60.73,86.38,59.61,86.83z M41.68,83c-0.31,0.91-0.62,1.57-0.75,2.27c-0.19,1.05-0.73,1.42-1.77,1.3
					c-0.76-0.09-1.53-0.02-2.66-0.02c1.26,0.98,2.56,1.51,2.96,2.43c0.45,1.02-0.58,2.21-0.81,3.37c-0.01,0.04,0.03,0.09,0.15,0.35
					c1.95-2.34,3.98-2.57,6.03,0.03c-0.27-1.37-1.03-2.58-0.83-3.61c0.22-1.11,1.89-1.42,2.91-2.66c-1.45,0-2.9,0.42-3.71-0.12
					C42.39,85.81,42.22,84.31,41.68,83z M21.93,92.76c-0.33-1.05-0.5-1.79-0.8-2.48c-0.4-0.93-0.29-1.58,0.65-2.1
					c0.67-0.38,1.26-0.9,1.89-1.37c0.02-0.14,0.03-0.29,0.05-0.43c-2.97,0.89-4.49-0.24-4.85-3.04c-0.01-0.05-0.15-0.07-0.3-0.15
					c-0.38,1.07-0.47,2.46-1.21,3.12c-0.78,0.7-2.21,0.13-3.35,0.25c-0.07,0.01-0.13,0.1-0.29,0.24c0.59,0.43,1.12,0.91,1.73,1.24
					c1.01,0.56,1.3,1.23,0.77,2.31c-0.32,0.65-0.45,1.41-0.66,2.12c0.04,0.18,0.08,0.37,0.12,0.55
					C17.66,89.91,19.65,90.67,21.93,92.76z M0.47,86.55c-0.58,0-1.2-0.07-1.79,0.02c-1.37,0.21-2.14-0.28-2.37-1.68
					c-0.09-0.58-0.37-1.13-0.66-1.97c-0.53,1.37-0.66,2.77-1.44,3.45c-0.81,0.7-2.29-0.05-3.57,0.37c0.98,0.77,2.3,1.32,2.7,2.26
					c0.45,1.05-0.69,2.27-0.84,3.94c2.11-2.64,4.14-2.74,6.2-0.23c-0.28-1.37-1.04-2.59-0.83-3.61c0.22-1.07,1.82-1.4,2.62-2.28
					C0.51,86.8,0.49,86.73,0.47,86.55z M-32.69,86.81c3.13,1.15,3.7,3.1,2.04,5.98c2.2-2.62,4.23-2.52,6.29-0.1
					c-0.28-1.34-1.04-2.57-0.83-3.59c0.22-1.07,1.81-1.4,2.62-2.28c0.02-0.02,0-0.09-0.01-0.27c-0.59,0-1.2-0.07-1.79,0.01
					c-1.36,0.2-2.15-0.27-2.37-1.68c-0.09-0.58-0.37-1.13-0.67-1.98c-0.52,1.37-0.66,2.78-1.43,3.45
					C-29.66,87.07-31.14,86.32-32.69,86.81z M82.65,67.01c0.95,0.69,1.56,1.23,2.26,1.63c0.84,0.48,0.9,1.07,0.57,1.89
					c-0.31,0.75-0.52,1.55-0.88,2.67c0.99-0.71,1.69-1.14,2.29-1.67c0.69-0.61,1.26-0.64,1.96-0.01c0.61,0.55,1.33,0.98,2.26,1.65
					c-0.34-1.07-0.51-1.82-0.81-2.51c-0.4-0.92-0.3-1.57,0.65-2.1c0.68-0.37,1.26-0.91,2.24-1.63c-1.22,0-1.98-0.07-2.72,0.02
					c-1.03,0.12-1.57-0.24-1.78-1.28c-0.14-0.72-0.46-1.4-0.71-2.1c-0.12-0.1-0.25-0.21-0.37-0.31
					C87.67,66.76,85.61,67.28,82.65,67.01z M59.83,66.76c0.02,0.14,0.03,0.28,0.05,0.42c0.37,0.28,0.73,0.58,1.1,0.85
					c1.81,1.32,1.81,1.31,1.14,3.38c-0.16,0.49-0.3,0.98-0.45,1.46c0.04,0.16,0.07,0.32,0.11,0.48c2.02-2.81,4.05-2.7,6.13-0.28
					c-0.19-1.02-0.41-1.85-0.73-2.63c-0.32-0.79-0.18-1.29,0.55-1.77c0.71-0.47,1.53-0.85,2.11-1.81c-1.35,0-2.69,0.37-3.59-0.1
					c-0.93-0.49-0.78-2.04-1.28-3.06c-0.03-0.06-0.16-0.06-0.44-0.16C64.5,66.64,62.8,67.61,59.83,66.76z M46.6,66.93
					c-0.82,0-1.67-0.07-2.5,0.02c-0.91,0.1-1.24-0.33-1.48-1.11c-0.23-0.77-0.31-1.63-0.97-2.37c-0.28,0.82-0.58,1.48-0.72,2.17
					c-0.21,1-0.68,1.45-1.75,1.31c-0.77-0.1-1.55-0.02-2.33-0.02c-0.1,0.11-0.21,0.22-0.31,0.32c3.14,1.02,3.47,2.95,2.13,5.42
					c-0.02,0.05,0.06,0.15,0.11,0.28c0.44-0.3,0.93-0.54,1.29-0.91c1.13-1.15,2.19-1.3,3.35-0.04c0.36,0.39,0.89,0.62,1.35,0.93
					c0.18,0.02,0.36,0.05,0.54,0.07c-2.35-2.84-1.02-4.49,1.33-5.82C46.64,67.18,46.62,67.11,46.6,66.93z M18.99,63.37
					c-0.13,0.08-0.26,0.15-0.38,0.23c-0.42,1.08-0.56,2.5-1.34,3.16c-0.81,0.68-2.28-0.04-3.62,0.37c0.76,0.56,1.4,1.11,2.11,1.54
					c0.74,0.45,0.92,0.95,0.59,1.76c-0.31,0.79-0.67,1.59-0.72,2.63c0.85-0.61,1.6-1.05,2.23-1.62c0.64-0.57,1.12-0.5,1.73,0.02
					c0.65,0.56,1.39,1.01,2.38,1.72c-0.37-1.15-0.57-1.94-0.89-2.67c-0.37-0.85-0.18-1.4,0.62-1.87c0.71-0.41,1.34-0.96,2-1.44
					c0-0.13,0.01-0.26,0.01-0.4C20.78,67.52,18.96,66.74,18.99,63.37z M0.74,67c-3.01,0.63-4.59-0.43-4.92-3.26
					c-0.01-0.05-0.14-0.09-0.46-0.26c0.09,3.34-2.05,3.75-4.89,3.56c0.87,0.64,1.51,1.18,2.22,1.62c0.74,0.45,0.94,0.94,0.59,1.76
					c-0.33,0.78-0.54,1.61-0.92,2.78c1.05-0.75,1.8-1.2,2.43-1.77c0.64-0.57,1.11-0.51,1.73,0.02c0.65,0.56,1.39,1.02,2.1,1.52
					c0.13-0.02,0.25-0.04,0.38-0.07C-2.82,70.24-2.21,68.35,0.74,67z M-24.28,72.85c-0.26-0.82-0.46-1.65-0.8-2.43
					c-0.35-0.82-0.1-1.28,0.59-1.76c0.68-0.48,1.53-0.81,2-1.73c-0.96,0-1.78-0.07-2.59,0.02c-0.9,0.1-1.26-0.31-1.49-1.1
					c-0.23-0.77-0.33-1.63-0.96-2.4c-0.25,0.73-0.53,1.3-0.63,1.91c-0.2,1.26-0.82,1.8-2.13,1.59c-0.67-0.1-1.37-0.02-2.42-0.02
					c1.24,0.95,2.51,1.46,2.95,2.38c0.49,1.02-0.55,2.21-0.78,3.36c-0.01,0.07,0.05,0.16,0.18,0.52c1.88-2.79,3.87-2.18,5.87-0.3
					C-24.47,72.9-24.42,72.87-24.28,72.85z M79.54,63.22c-0.28-0.9-0.45-1.7-0.78-2.42c-0.45-0.97-0.18-1.56,0.71-2.08
					c0.66-0.38,1.23-0.92,1.83-1.39c0.02-0.14,0.03-0.28,0.05-0.42c-3.02,1-4.44-0.27-4.83-3.02c-0.01-0.04-0.15-0.07-0.44-0.19
					c-0.03,2.99-1.68,3.94-4.4,3.43c-0.05-0.01-0.13,0.09-0.22,0.16c0.26,0.49,0.73,0.76,1.17,0.98c1.45,0.72,1.85,1.72,1.07,3.19
					c-0.26,0.48-0.35,1.06-0.6,1.83c1.2-0.83,2.12-1.92,3.16-2.05C77.38,61.12,78.19,62.53,79.54,63.22z M53.57,53.55
					c-0.13,0.08-0.25,0.16-0.38,0.23c-0.42,1.09-0.56,2.5-1.34,3.17c-0.8,0.69-2.27-0.05-3.78,0.44c3.11,1.15,3.64,3.11,1.99,5.78
					c0.73-0.36,1.29-0.64,1.7-1.07c1.09-1.14,2.07-0.99,3.13,0.04c0.4,0.4,0.93,0.67,1.66,1.18c-0.38-1.17-0.6-1.99-0.92-2.78
					c-0.31-0.75-0.16-1.22,0.55-1.64c0.74-0.44,1.4-1.02,2.09-1.54c0.01-0.13,0.01-0.26,0.02-0.4
					C55.32,57.77,53.58,56.87,53.57,53.55z M27.23,63.17c0.57-0.4,1.21-0.74,1.69-1.23c0.95-0.96,1.76-0.83,2.66,0.04
					c0.48,0.46,1.08,0.78,1.9,1.36c-0.39-1.18-0.61-2.01-0.93-2.8c-0.3-0.74-0.16-1.22,0.54-1.64c0.74-0.44,1.4-1.02,2.09-1.54
					c-1.28-0.29-2.6,0.07-3.5-0.39c-0.95-0.48-0.8-2.03-1.28-3.05c-0.03-0.06-0.15-0.08-0.28-0.15c-0.42,1.09-0.56,2.5-1.34,3.17
					c-0.8,0.69-2.27-0.05-3.78,0.44C28.11,58.55,28.65,60.5,27.23,63.17z M10.13,63.43c0.06-0.14,0.11-0.28,0.17-0.42
					c-0.07-0.22-0.14-0.43-0.21-0.65c-0.86-2.8-0.86-2.8,1.53-4.6c0.17-0.13,0.46-0.19,0.33-0.75c-3.03,1.16-4.13-0.71-4.86-3.47
					c-0.32,0.96-0.63,1.69-0.8,2.45c-0.2,0.9-0.64,1.26-1.58,1.16c-0.8-0.09-1.63-0.02-2.44-0.02c-0.1,0.11-0.21,0.23-0.31,0.34
					c3.14,1.04,3.41,2.98,2.09,5.44c-0.02,0.03,0.08,0.13,0.24,0.36C6.16,60.88,8.15,60.77,10.13,63.43z M-15.89,53.52
					c-0.2,3.46-2.29,3.93-5.09,3.82c2.94,1.21,3.54,3.14,1.86,5.84c0.96-0.51,1.72-0.98,2.38-1.56c0.64-0.56,1.13-0.49,1.73,0.02
					c0.66,0.56,1.39,1.03,2.38,1.75c-0.38-1.16-0.58-1.94-0.88-2.68c-0.35-0.83-0.21-1.4,0.59-1.87c0.71-0.41,1.33-0.96,2-1.44
					c0.01-0.13,0.01-0.26,0.02-0.4C-13.83,57.74-15.62,56.91-15.89,53.52z M58.5,37.82c-0.13-0.12-0.26-0.24-0.38-0.36
					c-1.14,0-2.48,0.37-3.38-0.1c-0.93-0.49-0.79-2.03-1.28-3.06c-0.03-0.06-0.15-0.07-0.31-0.15c-0.37,1.08-0.45,2.46-1.19,3.13
					c-0.78,0.71-2.2,0.13-3.34,0.25c-0.07,0.01-0.14,0.09-0.29,0.19c0.94,0.75,2.37,1.33,2.64,2.25c0.29,1-0.49,2.31-0.81,3.49
					c2.09-2.2,4.12-2.33,6.32,0.26C54.9,40.92,55.31,38.92,58.5,37.82z M-15.64,33.99c-0.12,0.06-0.24,0.12-0.36,0.18
					c-0.42,1.09-0.55,2.51-1.33,3.17c-0.81,0.69-2.28-0.04-3.81,0.42c3.09,1.17,3.69,3.1,2,5.79c0.96-0.52,1.72-0.98,2.39-1.56
					c0.64-0.55,1.13-0.5,1.74,0.02c0.66,0.56,1.39,1.02,2.37,1.73c-0.37-1.15-0.57-1.93-0.88-2.67c-0.36-0.84-0.22-1.4,0.6-1.87
					c0.71-0.41,1.33-0.96,2-1.45c0.04-0.17,0.07-0.34,0.11-0.51C-14.01,38.37-15.5,37.12-15.64,33.99z M10.31,43.45
					c-0.24-0.76-0.42-1.55-0.74-2.28c-0.38-0.88-0.28-1.47,0.61-1.99c0.68-0.4,1.44-0.81,2.01-1.73c-1.37,0-2.72,0.38-3.6-0.1
					c-0.91-0.49-0.77-2.04-1.27-3.06c-0.03-0.06-0.16-0.06-0.44-0.16c0.01,3.05-1.7,3.9-4.41,3.42c-0.05-0.01-0.12,0.1-0.26,0.23
					c0.7,0.52,1.34,1.09,2.07,1.51c0.72,0.42,0.85,0.9,0.55,1.64c-0.33,0.82-0.57,1.69-0.84,2.53c0.05,0.17,0.09,0.34,0.14,0.5
					C6.14,41.05,8.17,41.29,10.31,43.45z M25.12,37.63c1.1,0.85,2.39,1.38,2.8,2.3c0.45,1.01-0.57,2.21-0.81,3.36
					c-0.01,0.06,0.08,0.13,0.15,0.25c0.67-0.48,1.36-0.91,1.97-1.44c0.69-0.6,1.27-0.65,1.97-0.02c0.61,0.55,1.33,0.98,2.24,1.64
					c-0.15-0.5-0.2-0.67-0.25-0.85c-0.9-2.93-0.9-2.93,1.48-4.74c0.17-0.13,0.45-0.2,0.38-0.62c-0.79,0-1.59-0.07-2.38,0.02
					c-0.93,0.1-1.4-0.22-1.6-1.14c-0.17-0.77-0.48-1.5-0.84-2.58c-0.53,1.42-0.64,2.92-1.42,3.48
					C28.02,37.88,26.55,37.55,25.12,37.63z M79.5,43.46c-0.28-0.89-0.51-1.81-0.86-2.68c-0.27-0.67-0.09-1.03,0.48-1.4
					c0.76-0.5,1.46-1.09,2.19-1.65c0.01-0.14,0.03-0.28,0.04-0.42c-3.01,0.99-4.45-0.26-4.84-3.01c-0.01-0.04-0.15-0.07-0.44-0.2
					c-0.04,2.98-1.68,3.95-4.4,3.43c-0.06-0.01-0.14,0.09-0.43,0.29c3.02,1.1,3.5,3.07,1.87,5.87
					C75.33,41.25,77.36,41.13,79.5,43.46z M-22.45,47.27c-2.96,0.81-4.44-0.38-4.81-3.17c-0.01-0.04-0.15-0.07-0.44-0.19
					c-0.02,3.01-1.7,3.93-4.41,3.43c-0.06-0.01-0.14,0.09-0.43,0.3c3.02,1.09,3.53,3.05,1.89,5.87c2.21-2.43,4.24-2.58,6.3,0
					c-0.28-1.37-1.05-2.59-0.85-3.61C-24.98,48.78-23.34,48.45-22.45,47.27z M-7.6,53.5c2.21-2.41,4.24-2.59,6.3,0.01
					c-0.14-0.91-0.24-1.64-0.56-2.24c-0.64-1.2-0.25-1.92,0.84-2.52c0.59-0.32,1.1-0.78,1.65-1.18c0.01-0.15,0.01-0.3,0.02-0.44
					c-2.98,0.95-4.48-0.22-4.85-3.01c-0.01-0.05-0.15-0.07-0.52-0.24c0.24,3.43-1.88,3.79-4.47,3.49c-0.02,0-0.04,0.07-0.19,0.31
					C-6.48,48.72-5.94,50.68-7.6,53.5z M15.54,53.27c0.04,0.16,0.07,0.32,0.11,0.49c2.02-2.86,4.05-2.68,6.14-0.29
					c-0.2-1.02-0.41-1.85-0.73-2.63c-0.33-0.79-0.18-1.29,0.55-1.77c0.7-0.47,1.53-0.84,2.24-2c-3.19,1.08-4.59-0.24-5-2.97
					c-0.01-0.04-0.16-0.06-0.44-0.15c0.01,3.04-1.73,3.89-4.42,3.41c-0.05-0.01-0.13,0.1-0.27,0.22c0.5,0.38,0.95,0.81,1.48,1.09
					c1.21,0.64,1.59,1.46,0.92,2.74C15.83,51.97,15.73,52.64,15.54,53.27z M41.68,43.73c-0.26,0.79-0.52,1.32-0.6,1.88
					c-0.21,1.38-0.92,1.95-2.33,1.72c-0.62-0.1-1.27-0.02-1.91-0.02c-0.11,0.1-0.21,0.21-0.32,0.31c3.11,1.03,3.49,2.95,2.13,5.43
					c-0.03,0.05,0.05,0.16,0.19,0.58c1.87-2.93,3.86-2.22,5.87-0.36c0.02,0.01,0.07-0.01,0.36-0.08c-1.99-2.59-0.86-4.31,1.57-5.61
					c0.02-0.01,0-0.08-0.02-0.34c-1.15,0-2.61,0.42-3.42-0.12C42.39,46.59,42.23,45.08,41.68,43.73z M59.96,47.41
					c2.78,1.26,3.1,3.19,1.75,5.67c-0.02,0.04,0.07,0.14,0.14,0.27c0.71-0.51,1.45-0.96,2.09-1.53c0.62-0.54,1.1-0.58,1.73-0.02
					c0.66,0.57,1.41,1.04,2.38,1.74c-0.3-0.97-0.4-1.65-0.7-2.23c-0.59-1.15-0.36-1.93,0.77-2.55c0.6-0.33,1.12-0.79,1.68-1.2
					c-0.73-0.26-1.34-0.33-1.94-0.24c-1.36,0.21-2.14-0.26-2.36-1.67c-0.09-0.58-0.37-1.14-0.67-2.01
					c-0.52,1.39-0.63,2.89-1.41,3.45C62.6,47.68,61.14,47.35,59.96,47.41z M82.55,47.6c3.23,1.06,3.58,2.98,2.23,5.47
					c-0.03,0.05,0.05,0.15,0.17,0.46c1.84-2.5,3.78-2.4,5.76-0.3c0.04,0.04,0.15,0.02,0.55,0.05c-2.06-2.68-0.91-4.4,1.51-5.7
					c0.01-0.01-0.01-0.08-0.03-0.26c-0.82,0-1.67-0.07-2.51,0.02c-0.9,0.1-1.25-0.32-1.49-1.11c-0.23-0.77-0.33-1.63-1.17-2.63
					c0.05,3.46-1.77,4.18-4.43,3.74C83.11,47.34,83.07,47.38,82.55,47.6z M82.89,27.53c0,0.13-0.01,0.26-0.01,0.4
					c0.46,0.34,0.89,0.75,1.4,1.01c1.33,0.68,1.72,1.6,1,2.97c-0.28,0.53-0.38,1.16-0.56,1.74c2.14-2.26,4.17-2.31,6.25,0.23
					c-0.19-1.05-0.42-1.87-0.73-2.66c-0.31-0.77-0.23-1.29,0.54-1.77c0.72-0.45,1.51-0.88,2.37-2.03c-3.29,1.1-4.71-0.19-5.11-2.93
					c-0.01-0.04-0.15-0.06-0.43-0.17C87.54,27.37,85.89,28.41,82.89,27.53z M67.79,33.67c-1.66-2.69-0.51-4.4,1.91-5.7
					c0.02-0.01,0-0.08-0.01-0.36c-2.8,0.84-4.36-0.3-4.71-3.14c0-0.04-0.15-0.06-0.3-0.12c-0.37,1.07-0.44,2.5-1.19,3.13
					c-0.83,0.71-2.3,0.11-3.48,0.26c-0.03,0-0.05,0.06-0.15,0.2c0.63,0.47,1.23,1,1.9,1.4c0.75,0.45,1.11,0.93,0.71,1.84
					c-0.33,0.74-0.52,1.54-0.76,2.31c-0.01,0.05,0.08,0.12,0.13,0.2c1-0.66,1.99-1.82,2.98-1.82C65.8,31.87,66.8,33.02,67.79,33.67z
					 M36.69,27.95c2.99,1.11,3.3,3.04,1.96,5.52c-0.02,0.04,0.06,0.14,0.13,0.27c0.52-0.37,1.08-0.67,1.51-1.1
					c0.98-0.98,1.88-1.05,2.9-0.04c0.45,0.45,1.04,0.76,1.83,1.32c-0.36-1.12-0.58-1.94-0.9-2.72c-0.33-0.79-0.18-1.28,0.56-1.76
					c0.71-0.46,1.51-0.86,2.15-1.79c-1.38,0-2.71,0.37-3.62-0.1c-0.93-0.48-0.79-2.03-1.27-3.05c-0.03-0.06-0.15-0.08-0.54-0.26
					C41.74,27.84,39.36,27.9,36.69,27.95z M23.94,27.77c-0.54-0.04-0.71-0.06-0.89-0.06c-3.03-0.07-3.04-0.07-4.08-3
					c-0.07-0.19-0.12-0.36-0.42-0.32c-0.37,1.05-0.45,2.45-1.2,3.1c-0.78,0.68-2.21,0.12-3.34,0.23c-0.07,0.01-0.14,0.09-0.42,0.29
					c3,1.08,3.55,3.03,1.89,5.73c0.99-0.54,1.77-1.05,2.49-1.64c0.54-0.45,0.97-0.42,1.5,0.02c0.71,0.58,1.48,1.08,2.22,1.61
					c0.15-0.01,0.3-0.01,0.45-0.02C19.97,30.94,21.21,29.26,23.94,27.77z M-4.08,24.14c-0.15,0.06-0.29,0.13-0.44,0.19
					c-0.25,0.75-0.56,1.49-0.73,2.25c-0.2,0.92-0.68,1.23-1.6,1.13c-0.81-0.09-1.64-0.02-2.8-0.02c1.24,0.95,2.52,1.46,2.96,2.38
					c0.48,1.02-0.56,2.2-0.79,3.35c-0.01,0.07,0.05,0.16,0.17,0.54c1.88-2.81,3.87-2.23,5.87-0.33c0.02,0.02,0.08,0.01,0.24,0.02
					c-0.26-0.8-0.44-1.59-0.76-2.32c-0.38-0.88-0.29-1.47,0.6-1.99c0.69-0.41,1.44-0.83,2.17-1.86
					C-2.29,28.31-4.09,27.51-4.08,24.14z M-30.6,33.89c0.93-0.68,1.71-1.2,2.43-1.79c0.54-0.45,0.97-0.42,1.5,0.02
					c0.71,0.58,1.48,1.08,2.47,1.79c-0.31-1.01-0.45-1.72-0.74-2.36c-0.47-1.02-0.41-1.75,0.7-2.31c0.65-0.33,1.2-0.85,2.04-1.47
					c-0.52-0.04-0.69-0.06-0.87-0.06c-3.04-0.07-3.04-0.07-4.08-3c-0.07-0.19-0.12-0.36-0.42-0.32c-0.37,1.05-0.45,2.45-1.2,3.1
					c-0.78,0.68-2.21,0.13-3.34,0.23c-0.07,0.01-0.14,0.09-0.28,0.19c0.94,0.74,2.37,1.31,2.65,2.23
					C-29.45,31.14-30.23,32.46-30.6,33.89z"/>
				<path class="st23" d="M306.97,168.07c0,4.42-0.02,8.84,0.02,13.25c0.01,0.71-0.14,1.02-0.88,0.87c-0.14-0.03-0.29,0-0.43,0
					c-114.45,0-228.9,0-343.36,0.03c-1.09,0-1.34-0.26-1.32-1.33c0.07-4.27,0.03-8.55,0.03-12.82c0.57,0.03,1.15,0.09,1.72,0.09
					c114.17,0,228.33,0,342.5,0C305.82,168.15,306.4,168.09,306.97,168.07z"/>
				<path class="st23" d="M-38.97,154.23c0-4.71,0-9.42,0-14.12c0.53,0.01,1.06,0.02,1.58,0.02c114.26,0,228.51,0,342.77,0
					c0.53,0,1.06-0.02,1.58-0.02c0,4.71,0,9.42,0,14.12c-0.53-0.01-1.05-0.04-1.58-0.04c-114.26,0-228.52,0-342.77,0
					C-37.91,154.19-38.44,154.22-38.97,154.23z"/>
				<path class="st23" d="M-38.97,126.27c0-4.71,0-9.42,0-14.12c0.43,0,0.86-0.01,1.3-0.01c114.45,0,228.9,0,343.35,0
					c0.43,0,0.86,0.01,1.3,0.01c0,4.71,0,9.42,0,14.12c-0.52-0.04-1.04-0.12-1.57-0.12c-114.27-0.01-228.54-0.01-342.81,0
					C-37.92,126.16-38.45,126.23-38.97,126.27z"/>
				<path class="st24" d="M306.97,112.15c-0.43,0-0.86-0.01-1.3-0.01c-114.45,0-228.9,0-343.35,0c-0.43,0-0.86,0.01-1.3,0.01
					c0-4.61,0-9.22,0-13.84c0.65-0.27,1.33-0.13,1.99-0.13c44.84-0.01,89.68-0.01,134.52-0.01c0.62,0,1.25,0.13,1.85-0.12
					c0.53,0.01,1.06,0.04,1.58,0.04c68.14,0,136.27,0,204.41,0c0.53,0,1.05-0.04,1.58-0.06
					C306.97,102.73,306.97,107.44,306.97,112.15z"/>
				<path class="st24" d="M-38.97,154.23c0.53-0.01,1.06-0.04,1.58-0.04c114.26,0,228.52,0,342.77,0c0.53,0,1.05,0.03,1.58,0.04
					c0,4.61,0,9.22,0,13.84c-0.57,0.03-1.15,0.09-1.72,0.09c-114.17,0-228.33,0-342.5,0c-0.57,0-1.15-0.06-1.72-0.09
					C-38.97,163.45-38.97,158.84-38.97,154.23z"/>
				<path class="st24" d="M-38.97,126.27c0.52-0.04,1.04-0.12,1.57-0.12c114.27-0.01,228.54-0.01,342.81,0
					c0.52,0,1.04,0.08,1.57,0.12c0,4.61,0,9.22,0,13.84c-0.53,0.01-1.06,0.02-1.58,0.02c-114.26,0-228.51,0-342.77,0
					c-0.53,0-1.06-0.02-1.58-0.02C-38.97,135.5-38.97,130.88-38.97,126.27z"/>
				<path class="st23" d="M99.45,14.07c-0.01-4.68-0.03-9.36-0.04-14.04c68.76,0,137.51,0,206.27-0.03c1.08,0,1.35,0.24,1.33,1.32
					c-0.07,4.27-0.03,8.55-0.03,12.83c-0.38-0.03-0.76-0.09-1.14-0.09C237.03,14.06,168.24,14.07,99.45,14.07z"/>
				<path class="st23" d="M99.45,42.09c0-4.69,0-9.37,0-14.06c68.84,0,137.67,0,206.51,0c0.34,0,0.67-0.03,1.01-0.04
					c0,4.71,0,9.42,0,14.12c-0.34-0.01-0.67-0.02-1.01-0.02C237.13,42.08,168.29,42.08,99.45,42.09z"/>
				<path class="st24" d="M99.45,84.12c0-4.68,0-9.36,0-14.04c57.79,0,115.57,0,173.36,0c11.38,0,22.77-0.01,34.15-0.01
					c0,4.71,0,9.42,0,14.12c-0.62-0.02-1.25-0.06-1.87-0.06C236.55,84.12,168,84.12,99.45,84.12z"/>
				<path class="st23" d="M306.97,70.07c-11.38,0-22.77,0.01-34.15,0.01c-57.79,0-115.57,0-173.36,0c0-4.68,0-9.35-0.01-14.03
					c0.1,0,0.19,0.01,0.29,0.01c68.65,0,137.3,0,205.96,0c0.43,0,0.85-0.08,1.28-0.12C306.97,60.65,306.97,65.36,306.97,70.07z"/>
				<path class="st23" d="M99.45,84.12c68.55,0,137.1,0,205.65,0c0.62,0,1.25,0.04,1.87,0.06c0,4.61,0,9.22,0,13.84
					c-0.53,0.02-1.05,0.06-1.58,0.06c-68.14,0-136.27,0-204.41,0c-0.53,0-1.05-0.03-1.58-0.04C99.42,93.41,99.44,88.77,99.45,84.12z
					"/>
				<path class="st24" d="M306.97,55.94c-0.43,0.04-0.85,0.12-1.28,0.12c-68.65,0-137.3,0-205.96,0c-0.1,0-0.19-0.01-0.29-0.01
					c0-4.66,0-9.31,0-13.97c68.84,0,137.67,0,206.51,0c0.34,0,0.67,0.02,1.01,0.02C306.97,46.72,306.97,51.33,306.97,55.94z"/>
				<path class="st24" d="M306.97,27.99c-0.34,0.01-0.67,0.04-1.01,0.04c-68.84,0-137.67,0-206.51,0c0-4.65,0-9.3,0-13.95
					c68.79,0,137.59-0.01,206.38,0c0.38,0,0.76,0.06,1.14,0.09C306.97,18.76,306.97,23.37,306.97,27.99z"/>
				<path class="st24" d="M76.22,73.33c0.21,0.11,0.27,0.13,0.28,0.15c0.45,2.65,1.73,4.14,4.97,2.99
					c-0.64,1.15-1.43,1.51-2.11,1.94c-0.77,0.49-1.01,1-0.63,1.87c0.32,0.74,0.51,1.53,0.87,2.63c-0.64-0.43-1.04-0.69-1.42-0.97
					c-1.81-1.31-1.81-1.31-3.69,0.05c-0.37,0.27-0.75,0.51-1.14,0.78c-0.06-0.14-0.11-0.2-0.09-0.23c1.28-2.44,1.1-4.41-2.18-5.48
					c0.96-0.45,1.59-0.4,2.13-0.29c1.57,0.29,2.25-0.45,2.52-1.87C75.81,74.39,76.03,73.91,76.22,73.33z"/>
				<path class="st24" d="M48.23,76.87c2.73,0.12,5.02-0.09,4.7-3.96c0.16,0.16,0.32,0.31,0.47,0.47c0.19,0.57,0.47,1.12,0.57,1.7
					c0.23,1.41,1,1.88,2.37,1.68c0.59-0.09,1.2-0.01,2-0.01c-0.93,1.16-2.6,1.46-2.82,2.56c-0.2,1.03,0.56,2.24,0.84,3.62
					c-2.06-2.62-4.09-2.41-6.17-0.25c0.31-1.18,1.08-2.5,0.79-3.5C50.71,78.27,49.28,77.7,48.23,76.87z"/>
				<path class="st24" d="M30.35,73.38c0.25,0.75,0.57,1.48,0.73,2.24c0.2,0.92,0.68,1.24,1.61,1.15c0.79-0.08,1.59-0.02,2.37-0.02
					c0.01,0.18,0.04,0.26,0.02,0.26c-2.4,1.32-3.57,3.04-1.56,5.94c-2.28-2.54-4.31-2.51-6.51-0.02c1.64-2.8,1.14-4.78-1.87-5.97
					c2.81,0.1,4.9-0.39,4.83-3.89C30.09,73.17,30.22,73.28,30.35,73.38z"/>
				<path class="st24" d="M7.45,73.45c0,3.04,1.76,3.92,4.49,3.22c0.16,0.51-0.13,0.57-0.3,0.71c-2.38,1.81-2.38,1.81-1.49,4.75
					c0.05,0.17,0.1,0.35,0.15,0.53c-0.4,0.09-0.58-0.18-0.79-0.33c-2.33-1.66-2.33-1.66-4.62-0.03c-0.23,0.16-0.47,0.31-0.99,0.66
					c0.37-1.12,0.6-1.97,0.93-2.79c0.3-0.75,0.17-1.22-0.55-1.64c-0.73-0.42-1.37-0.99-2.07-1.51c0.16-0.13,0.23-0.24,0.29-0.23
					c2.43,0.39,4.16-0.23,4.39-3.03C6.9,73.53,7.02,73.39,7.45,73.45z"/>
				<path class="st24" d="M87.87,82.95c0.31,3.31,2.03,4.25,5,3.44c0,0.14,0,0.28,0,0.42c-0.66,0.48-1.3,1.02-2,1.43
					c-0.8,0.47-0.96,1.04-0.61,1.88c0.31,0.74,0.51,1.53,0.88,2.67c-0.95-0.68-1.67-1.11-2.28-1.66c-0.71-0.64-1.28-0.6-1.97,0.01
					c-0.61,0.53-1.3,0.96-2.29,1.68c0.37-1.14,0.57-1.94,0.89-2.7c0.36-0.84,0.21-1.41-0.6-1.88c-0.69-0.4-1.31-0.93-1.99-1.43
					c0.15-0.13,0.22-0.24,0.27-0.23C85.85,87.04,87.61,86.22,87.87,82.95z"/>
				<path class="st24" d="M59.61,86.83c1.12-0.45,1.94-0.3,2.72-0.25c0.91,0.05,1.42-0.2,1.62-1.14c0.16-0.77,0.48-1.5,0.85-2.62
					c0.36,1.02,0.69,1.66,0.8,2.33c0.2,1.19,0.83,1.57,1.98,1.42c0.69-0.09,1.4-0.02,2.08-0.02c0.02,0.18,0.04,0.25,0.03,0.26
					c-2.44,1.31-3.49,3.06-1.63,5.92c-2.22-2.53-4.25-2.45-6.45-0.01C63.25,89.92,62.71,87.96,59.61,86.83z"/>
				<path class="st24" d="M41.68,83c0.54,1.31,0.71,2.81,1.51,3.35c0.81,0.54,2.26,0.12,3.71,0.12c-1.03,1.24-2.69,1.54-2.91,2.66
					c-0.2,1.03,0.56,2.24,0.83,3.61c-2.05-2.61-4.08-2.37-6.03-0.03c-0.11-0.26-0.16-0.31-0.15-0.35c0.23-1.16,1.26-2.36,0.81-3.37
					c-0.4-0.92-1.7-1.45-2.96-2.43c1.13,0,1.91-0.07,2.66,0.02c1.05,0.12,1.58-0.25,1.77-1.3C41.06,84.57,41.37,83.91,41.68,83z"/>
				<path class="st24" d="M21.93,92.76c-2.28-2.09-4.27-2.85-6.26,0.28c-0.04-0.18-0.08-0.37-0.12-0.55
					c0.21-0.71,0.33-1.46,0.66-2.12c0.54-1.08,0.25-1.76-0.77-2.31c-0.61-0.33-1.14-0.81-1.73-1.24c0.16-0.14,0.22-0.23,0.29-0.24
					c1.14-0.12,2.57,0.45,3.35-0.25c0.74-0.66,0.83-2.05,1.21-3.12c0.15,0.07,0.3,0.1,0.3,0.15c0.35,2.8,1.88,3.93,4.85,3.04
					c-0.02,0.14-0.03,0.29-0.05,0.43c-0.63,0.46-1.21,0.99-1.89,1.37c-0.94,0.52-1.05,1.18-0.65,2.1
					C21.43,90.97,21.6,91.71,21.93,92.76z"/>
				<path class="st24" d="M0.47,86.55c0.02,0.18,0.04,0.25,0.02,0.27c-0.81,0.88-2.4,1.21-2.62,2.28c-0.21,1.02,0.55,2.24,0.83,3.61
					c-2.06-2.52-4.09-2.41-6.2,0.23c0.15-1.67,1.29-2.9,0.84-3.94c-0.4-0.94-1.73-1.49-2.7-2.26c1.29-0.42,2.76,0.34,3.57-0.37
					c0.78-0.67,0.91-2.08,1.44-3.45c0.29,0.84,0.57,1.39,0.66,1.97c0.23,1.4,1.01,1.89,2.37,1.68C-0.73,86.48-0.11,86.55,0.47,86.55
					z"/>
				<path class="st24" d="M82.65,67.01c2.96,0.27,5.02-0.25,4.97-3.74c0.12,0.1,0.25,0.21,0.37,0.31c0.24,0.7,0.56,1.38,0.71,2.1
					c0.21,1.04,0.75,1.4,1.78,1.28c0.74-0.09,1.5-0.02,2.72-0.02c-0.98,0.72-1.56,1.25-2.24,1.63c-0.94,0.52-1.05,1.17-0.65,2.1
					c0.3,0.69,0.47,1.44,0.81,2.51c-0.94-0.67-1.66-1.1-2.26-1.65c-0.7-0.64-1.27-0.61-1.96,0.01c-0.6,0.53-1.3,0.96-2.29,1.67
					c0.36-1.12,0.57-1.92,0.88-2.67c0.34-0.82,0.27-1.4-0.57-1.89C84.22,68.24,83.6,67.7,82.65,67.01z"/>
				<path class="st24" d="M59.83,66.76c2.98,0.85,4.67-0.12,4.71-3.21c0.28,0.1,0.41,0.1,0.44,0.16c0.5,1.02,0.35,2.57,1.28,3.06
					c0.9,0.47,2.24,0.1,3.59,0.1c-0.58,0.96-1.41,1.35-2.11,1.81c-0.73,0.48-0.87,0.99-0.55,1.77c0.32,0.78,0.53,1.61,0.73,2.63
					c-2.08-2.41-4.11-2.53-6.13,0.28c-0.04-0.16-0.07-0.32-0.11-0.48c0.15-0.49,0.29-0.98,0.45-1.46c0.67-2.07,0.67-2.07-1.14-3.38
					c-0.37-0.27-0.73-0.56-1.1-0.85C59.86,67.04,59.84,66.9,59.83,66.76z"/>
				<path class="st24" d="M46.6,66.93c0.02,0.17,0.05,0.25,0.03,0.26c-2.35,1.33-3.68,2.98-1.33,5.82
					c-0.18-0.02-0.36-0.05-0.54-0.07c-0.45-0.31-0.99-0.54-1.35-0.93c-1.16-1.26-2.23-1.11-3.35,0.04c-0.36,0.37-0.85,0.6-1.29,0.91
					c-0.06-0.13-0.14-0.23-0.11-0.28c1.34-2.48,1.02-4.4-2.13-5.42c0.1-0.11,0.21-0.22,0.31-0.32c0.78,0,1.57-0.08,2.33,0.02
					c1.07,0.14,1.55-0.3,1.75-1.31c0.14-0.69,0.44-1.35,0.72-2.17c0.66,0.74,0.73,1.6,0.97,2.37c0.24,0.79,0.57,1.21,1.48,1.11
					C44.93,66.86,45.78,66.93,46.6,66.93z"/>
				<path class="st24" d="M18.99,63.37c-0.02,3.37,1.8,4.16,4.71,3.42c0,0.13-0.01,0.26-0.01,0.4c-0.66,0.48-1.29,1.03-2,1.44
					c-0.8,0.47-0.98,1.02-0.62,1.87c0.32,0.74,0.51,1.53,0.89,2.67c-0.99-0.7-1.72-1.16-2.38-1.72c-0.61-0.52-1.09-0.6-1.73-0.02
					c-0.64,0.57-1.38,1.01-2.23,1.62c0.05-1.04,0.41-1.84,0.72-2.63c0.33-0.81,0.15-1.31-0.59-1.76c-0.71-0.43-1.35-0.98-2.11-1.54
					c1.34-0.41,2.81,0.32,3.62-0.37c0.78-0.66,0.92-2.08,1.34-3.16C18.73,63.52,18.86,63.44,18.99,63.37z"/>
				<path class="st24" d="M0.74,67c-2.95,1.35-3.56,3.23-1.75,5.9c-0.13,0.02-0.25,0.04-0.38,0.07c-0.7-0.5-1.44-0.96-2.1-1.52
					c-0.61-0.53-1.09-0.59-1.73-0.02C-5.85,72-6.6,72.44-7.65,73.19c0.38-1.16,0.59-2,0.92-2.78c0.35-0.81,0.15-1.31-0.59-1.76
					c-0.71-0.43-1.35-0.98-2.22-1.62c2.85,0.18,4.99-0.22,4.89-3.56c0.32,0.18,0.46,0.21,0.46,0.26C-3.85,66.58-2.28,67.63,0.74,67z
					"/>
				<path class="st24" d="M79.54,63.22c-1.36-0.7-2.17-2.1-3.27-1.96c-1.04,0.13-1.96,1.22-3.16,2.05c0.25-0.78,0.34-1.35,0.6-1.83
					c0.78-1.47,0.38-2.46-1.07-3.19c-0.44-0.22-0.91-0.5-1.17-0.98c0.09-0.07,0.16-0.17,0.22-0.16c2.72,0.51,4.37-0.44,4.4-3.43
					c0.29,0.12,0.43,0.14,0.44,0.19c0.39,2.74,1.81,4.02,4.83,3.02c-0.02,0.14-0.03,0.28-0.05,0.42c-0.61,0.47-1.18,1.01-1.83,1.39
					c-0.88,0.52-1.15,1.1-0.71,2.08C79.09,61.53,79.26,62.32,79.54,63.22z"/>
				<path class="st24" d="M53.57,53.55c0,3.32,1.75,4.21,4.7,3.42c-0.01,0.13-0.01,0.26-0.02,0.4c-0.69,0.52-1.35,1.09-2.09,1.54
					c-0.7,0.42-0.85,0.89-0.55,1.64c0.32,0.79,0.54,1.62,0.92,2.78c-0.73-0.51-1.26-0.78-1.66-1.18c-1.05-1.04-2.04-1.18-3.13-0.04
					c-0.41,0.43-0.97,0.71-1.7,1.07c1.65-2.68,1.12-4.63-1.99-5.78c1.51-0.49,2.98,0.24,3.78-0.44c0.78-0.67,0.92-2.08,1.34-3.17
					C53.32,53.71,53.44,53.63,53.57,53.55z"/>
				<path class="st24" d="M27.23,63.17c1.42-2.67,0.88-4.63-2.23-5.78c1.51-0.49,2.98,0.25,3.78-0.44c0.78-0.67,0.92-2.08,1.34-3.17
					c0.13,0.07,0.25,0.09,0.28,0.15c0.48,1.02,0.33,2.56,1.28,3.05c0.9,0.46,2.23,0.1,3.5,0.39c-0.69,0.52-1.35,1.1-2.09,1.54
					c-0.71,0.43-0.85,0.9-0.54,1.64c0.32,0.79,0.54,1.62,0.93,2.8c-0.82-0.58-1.42-0.91-1.9-1.36c-0.91-0.87-1.72-1-2.66-0.04
					C28.44,62.43,27.8,62.77,27.23,63.17z"/>
				<path class="st24" d="M10.13,63.43c-1.99-2.66-3.97-2.55-5.84-0.16c-0.16-0.24-0.26-0.33-0.24-0.36
					c1.32-2.45,1.05-4.4-2.09-5.44c0.1-0.11,0.21-0.23,0.31-0.34c0.81,0,1.64-0.07,2.44,0.02c0.94,0.1,1.38-0.26,1.58-1.16
					c0.17-0.76,0.48-1.49,0.8-2.45c0.73,2.76,1.83,4.63,4.86,3.47c0.13,0.56-0.15,0.62-0.33,0.75c-2.39,1.8-2.39,1.8-1.53,4.6
					c0.07,0.22,0.14,0.44,0.21,0.65C10.25,63.15,10.19,63.29,10.13,63.43z"/>
				<path class="st24" d="M58.5,37.82c-3.19,1.11-3.6,3.1-2.01,5.9c-2.2-2.59-4.23-2.46-6.32-0.26c0.32-1.18,1.1-2.49,0.81-3.49
					c-0.27-0.92-1.7-1.5-2.64-2.25c0.15-0.1,0.21-0.18,0.29-0.19c1.14-0.11,2.56,0.46,3.34-0.25c0.73-0.67,0.82-2.05,1.19-3.13
					c0.16,0.07,0.28,0.09,0.31,0.15c0.49,1.02,0.34,2.57,1.28,3.06c0.9,0.47,2.23,0.1,3.38,0.1C58.24,37.58,58.37,37.7,58.5,37.82z"
					/>
				<path class="st24" d="M10.31,43.45c-2.14-2.16-4.17-2.39-6.19,0.51c-0.05-0.17-0.09-0.34-0.14-0.5
					c0.28-0.85,0.51-1.71,0.84-2.53c0.3-0.74,0.17-1.22-0.55-1.64c-0.73-0.43-1.37-0.99-2.07-1.51c0.14-0.13,0.21-0.24,0.26-0.23
					c2.7,0.48,4.42-0.38,4.41-3.42c0.29,0.1,0.42,0.1,0.44,0.16c0.5,1.02,0.36,2.57,1.27,3.06c0.89,0.48,2.23,0.1,3.6,0.1
					c-0.57,0.92-1.33,1.33-2.01,1.73c-0.89,0.53-0.99,1.11-0.61,1.99C9.88,41.9,10.07,42.69,10.31,43.45z"/>
				<path class="st24" d="M25.12,37.63c1.43-0.08,2.9,0.25,3.7-0.33c0.78-0.56,0.89-2.06,1.42-3.48c0.36,1.08,0.67,1.81,0.84,2.58
					c0.2,0.92,0.67,1.24,1.6,1.14c0.79-0.08,1.6-0.02,2.38-0.02c0.07,0.42-0.2,0.49-0.38,0.62c-2.38,1.81-2.38,1.81-1.48,4.74
					c0.05,0.17,0.1,0.35,0.25,0.85c-0.91-0.66-1.63-1.09-2.24-1.64c-0.71-0.64-1.28-0.59-1.97,0.02c-0.61,0.53-1.3,0.96-1.97,1.44
					c-0.07-0.12-0.16-0.2-0.15-0.25c0.24-1.15,1.26-2.35,0.81-3.36C27.52,39.01,26.22,38.48,25.12,37.63z"/>
				<path class="st24" d="M79.5,43.46c-2.14-2.33-4.17-2.21-6.37,0.24c1.63-2.8,1.15-4.77-1.87-5.87c0.3-0.21,0.38-0.3,0.43-0.29
					c2.72,0.52,4.36-0.45,4.4-3.43c0.29,0.13,0.43,0.15,0.44,0.2c0.38,2.76,1.83,4,4.84,3.01c-0.01,0.14-0.03,0.28-0.04,0.42
					c-0.73,0.55-1.43,1.15-2.19,1.65c-0.57,0.37-0.75,0.73-0.48,1.4C78.99,41.65,79.22,42.57,79.5,43.46z"/>
				<path class="st24" d="M-7.6,53.5c1.66-2.82,1.12-4.77-1.77-5.83c0.14-0.24,0.17-0.31,0.19-0.31c2.59,0.3,4.71-0.06,4.47-3.49
					c0.37,0.17,0.51,0.2,0.52,0.24c0.37,2.8,1.87,3.96,4.85,3.01c-0.01,0.15-0.01,0.3-0.02,0.44c-0.55,0.4-1.06,0.85-1.65,1.18
					c-1.09,0.6-1.49,1.32-0.84,2.52c0.32,0.61,0.42,1.33,0.56,2.24C-3.36,50.91-5.39,51.09-7.6,53.5z"/>
				<path class="st24" d="M15.54,53.27c0.19-0.63,0.29-1.3,0.59-1.87c0.67-1.28,0.29-2.1-0.92-2.74c-0.53-0.28-0.98-0.72-1.48-1.09
					c0.14-0.12,0.21-0.23,0.27-0.22c2.69,0.48,4.43-0.37,4.42-3.41c0.28,0.1,0.43,0.11,0.44,0.15c0.41,2.73,1.81,4.04,5,2.97
					c-0.71,1.16-1.54,1.54-2.24,2c-0.73,0.49-0.88,0.98-0.55,1.77c0.32,0.78,0.54,1.61,0.73,2.63c-2.09-2.39-4.12-2.56-6.14,0.29
					C15.61,53.59,15.58,53.43,15.54,53.27z"/>
				<path class="st24" d="M41.68,43.73c0.55,1.35,0.71,2.86,1.51,3.39c0.82,0.54,2.27,0.12,3.42,0.12c0.02,0.26,0.04,0.33,0.02,0.34
					c-2.43,1.3-3.56,3.02-1.57,5.61c-0.29,0.06-0.34,0.09-0.36,0.08c-2-1.86-3.99-2.57-5.87,0.36c-0.14-0.42-0.22-0.53-0.19-0.58
					c1.36-2.48,0.98-4.4-2.13-5.43c0.11-0.1,0.21-0.21,0.32-0.31c0.64,0,1.29-0.08,1.91,0.02c1.41,0.23,2.11-0.35,2.33-1.72
					C41.17,45.06,41.42,44.52,41.68,43.73z"/>
				<path class="st24" d="M59.96,47.41c1.18-0.06,2.65,0.27,3.46-0.31c0.78-0.56,0.89-2.06,1.41-3.45c0.3,0.87,0.58,1.43,0.67,2.01
					c0.22,1.41,1.01,1.88,2.36,1.67c0.59-0.09,1.21-0.02,1.94,0.24c-0.56,0.4-1.08,0.87-1.68,1.2c-1.14,0.62-1.36,1.4-0.77,2.55
					c0.3,0.58,0.4,1.25,0.7,2.23c-0.97-0.7-1.72-1.16-2.38-1.74c-0.63-0.55-1.12-0.51-1.73,0.02c-0.65,0.56-1.38,1.02-2.09,1.53
					c-0.07-0.13-0.16-0.23-0.14-0.27C63.06,50.6,62.73,48.67,59.96,47.41z"/>
				<path class="st24" d="M82.55,47.6c0.52-0.23,0.56-0.26,0.6-0.26c2.66,0.44,4.48-0.29,4.43-3.74c0.84,1,0.94,1.86,1.17,2.63
					c0.24,0.79,0.58,1.2,1.49,1.11c0.83-0.09,1.69-0.02,2.51-0.02c0.02,0.18,0.04,0.25,0.03,0.26c-2.42,1.31-3.57,3.02-1.51,5.7
					c-0.4-0.03-0.51-0.01-0.55-0.05c-1.97-2.1-3.92-2.2-5.76,0.3c-0.12-0.31-0.2-0.41-0.17-0.46C86.12,50.59,85.78,48.66,82.55,47.6
					z"/>
				<path class="st24" d="M82.89,27.53c3,0.88,4.65-0.15,4.72-3.22c0.28,0.11,0.42,0.13,0.43,0.17c0.4,2.75,1.82,4.03,5.11,2.93
					c-0.86,1.16-1.65,1.58-2.37,2.03c-0.77,0.48-0.85,1-0.54,1.77c0.32,0.79,0.54,1.61,0.73,2.66c-2.08-2.54-4.12-2.48-6.25-0.23
					c0.18-0.58,0.28-1.21,0.56-1.74c0.71-1.38,0.32-2.29-1-2.97c-0.51-0.26-0.93-0.67-1.4-1.01C82.88,27.79,82.89,27.66,82.89,27.53
					z"/>
				<path class="st24" d="M67.79,33.67c-0.99-0.65-1.99-1.8-2.98-1.8c-0.99,0-1.98,1.16-2.98,1.82c-0.05-0.07-0.15-0.15-0.13-0.2
					c0.24-0.77,0.43-1.57,0.76-2.31c0.4-0.91,0.05-1.38-0.71-1.84c-0.67-0.41-1.27-0.93-1.9-1.4c0.1-0.13,0.12-0.19,0.15-0.2
					c1.18-0.15,2.65,0.44,3.48-0.26c0.74-0.63,0.82-2.05,1.19-3.13c0.15,0.05,0.3,0.08,0.3,0.12c0.35,2.84,1.91,3.98,4.71,3.14
					c0.01,0.28,0.03,0.35,0.01,0.36C67.28,29.27,66.13,30.98,67.79,33.67z"/>
				<path class="st24" d="M36.69,27.95c2.67-0.05,5.05-0.11,4.71-3.71c0.39,0.18,0.51,0.2,0.54,0.26c0.48,1.02,0.34,2.57,1.27,3.05
					c0.9,0.47,2.24,0.1,3.62,0.1c-0.64,0.92-1.44,1.33-2.15,1.79c-0.74,0.48-0.89,0.97-0.56,1.76c0.32,0.78,0.54,1.61,0.9,2.72
					c-0.79-0.56-1.38-0.87-1.83-1.32c-1.01-1.01-1.91-0.95-2.9,0.04c-0.43,0.43-0.99,0.73-1.51,1.1c-0.06-0.13-0.15-0.23-0.13-0.27
					C39.99,31,39.67,29.07,36.69,27.95z"/>
				<path class="st24" d="M23.94,27.77c-2.73,1.49-3.97,3.17-1.81,5.94c-0.15,0.01-0.3,0.01-0.45,0.02
					c-0.74-0.53-1.51-1.03-2.22-1.61c-0.54-0.44-0.96-0.46-1.5-0.02c-0.72,0.59-1.5,1.11-2.49,1.64c1.66-2.7,1.11-4.65-1.89-5.73
					c0.29-0.2,0.35-0.29,0.42-0.29c1.14-0.1,2.57,0.45,3.34-0.23c0.74-0.65,0.83-2.06,1.2-3.1c0.3-0.04,0.36,0.14,0.42,0.32
					c1.05,2.93,1.05,2.93,4.08,3C23.22,27.71,23.4,27.73,23.94,27.77z"/>
				<path class="st24" d="M-4.08,24.14c-0.01,3.36,1.79,4.17,4.89,3.36c-0.73,1.03-1.48,1.46-2.17,1.86
					c-0.89,0.53-0.98,1.11-0.6,1.99c0.32,0.73,0.5,1.52,0.76,2.32c-0.16-0.01-0.21,0-0.24-0.02c-2-1.91-3.99-2.49-5.87,0.33
					c-0.12-0.37-0.18-0.46-0.17-0.54c0.23-1.15,1.27-2.34,0.79-3.35c-0.43-0.92-1.72-1.43-2.96-2.38c1.16,0,1.99-0.07,2.8,0.02
					c0.92,0.1,1.4-0.21,1.6-1.13c0.17-0.77,0.48-1.5,0.73-2.25C-4.37,24.27-4.22,24.21-4.08,24.14z"/>
				<path class="st24" d="M56.12,23.71c-2.01-1.82-3.98-2.23-5.78,0.46c-0.11-0.37-0.19-0.48-0.16-0.53
					c1.39-2.49,0.96-4.38-2.1-5.42c0.1-0.1,0.2-0.21,0.3-0.31c0.78,0,1.57-0.08,2.33,0.02c1.08,0.14,1.53-0.32,1.75-1.31
					c0.16-0.71,0.47-1.39,0.71-2.08c0.17,0.05,0.24,0.06,0.25,0.08c0.42,2.75,1.81,4.13,4.94,3.08c-0.03,0.14-0.07,0.29-0.1,0.43
					c-0.62,0.47-1.2,1.03-1.88,1.39c-0.98,0.52-1.04,1.17-0.65,2.09c0.26,0.61,0.39,1.28,0.59,1.92
					C56.24,23.58,56.18,23.65,56.12,23.71z"/>
				<path class="st24" d="M79.18,23.71c-2.01-1.82-3.98-2.23-5.78,0.46c-0.11-0.37-0.19-0.48-0.16-0.53
					c1.39-2.49,0.96-4.38-2.1-5.42c0.1-0.1,0.2-0.21,0.3-0.31c0.78,0,1.57-0.08,2.33,0.02c1.08,0.14,1.53-0.32,1.75-1.31
					c0.16-0.71,0.47-1.39,0.71-2.08c0.17,0.05,0.24,0.06,0.25,0.08c0.42,2.75,1.81,4.13,4.94,3.08c-0.03,0.14-0.07,0.29-0.1,0.43
					c-0.62,0.47-1.2,1.03-1.88,1.39c-0.98,0.52-1.04,1.17-0.65,2.09c0.26,0.61,0.39,1.28,0.59,1.92
					C79.31,23.58,79.24,23.65,79.18,23.71z"/>
				<path class="st24" d="M33.06,23.71c-2.01-1.82-3.98-2.23-5.78,0.46c-0.11-0.37-0.17-0.46-0.16-0.54
					c0.23-1.15,1.27-2.34,0.79-3.36c-0.43-0.92-1.71-1.44-2.92-2.37c1.1,0,1.89-0.08,2.66,0.02c1.08,0.14,1.53-0.32,1.75-1.31
					c0.16-0.71,0.47-1.39,0.71-2.08c0.17,0.05,0.23,0.05,0.25,0.08c0.57,1.03,0.36,2.63,1.37,3.15c0.9,0.46,2.22,0.1,3.82,0.1
					c-0.97,0.73-1.54,1.29-2.22,1.65c-0.98,0.52-1.04,1.17-0.65,2.09c0.26,0.61,0.39,1.28,0.59,1.92
					C33.18,23.58,33.12,23.65,33.06,23.71z"/>
				<path class="st24" d="M9.99,23.71c-2.01-1.82-3.98-2.23-5.78,0.46c-0.11-0.37-0.19-0.48-0.16-0.53c1.39-2.49,0.96-4.38-2.1-5.42
					c0.1-0.1,0.2-0.21,0.3-0.31c0.78,0,1.57-0.08,2.33,0.02c1.08,0.14,1.53-0.32,1.75-1.31c0.16-0.71,0.47-1.39,0.71-2.08
					c0.17,0.05,0.24,0.06,0.25,0.08c0.42,2.75,1.81,4.13,4.94,3.08c-0.03,0.14-0.07,0.29-0.1,0.43c-0.62,0.47-1.2,1.03-1.88,1.39
					c-0.98,0.52-1.04,1.17-0.65,2.09c0.26,0.61,0.39,1.28,0.59,1.92C10.12,23.58,10.05,23.65,9.99,23.71z"/>
				<path class="st24" d="M84.84,13.72c1.29-2.46,0.84-4.31-2.16-5.28c0.09-0.11,0.18-0.23,0.26-0.34c0.86,0,1.73-0.07,2.57,0.02
					c0.9,0.1,1.27-0.3,1.47-1.1c0.19-0.77,0.49-1.52,0.74-2.28c0.17,0.07,0.31,0.09,0.32,0.13c0.38,2.81,1.88,4.02,4.81,3.45
					c-0.51,0.39-0.99,0.85-1.55,1.15c-1.15,0.61-1.56,1.38-0.89,2.61c0.27,0.49,0.33,1.09,0.49,1.64c-0.06,0.06-0.13,0.12-0.19,0.18
					c-1.9-1.9-3.79-1.88-5.68,0.01C84.97,13.84,84.91,13.78,84.84,13.72z"/>
				<path class="st24" d="M61.78,13.72c1.29-2.46,0.84-4.31-2.16-5.28c0.09-0.11,0.18-0.23,0.26-0.34c0.86,0,1.73-0.07,2.57,0.02
					c0.9,0.1,1.27-0.3,1.47-1.1c0.19-0.77,0.49-1.52,0.74-2.28c0.17,0.07,0.31,0.09,0.32,0.13c0.38,2.81,1.88,4.02,4.81,3.45
					c-0.51,0.39-0.99,0.85-1.55,1.15c-1.15,0.61-1.56,1.38-0.89,2.61c0.27,0.49,0.33,1.09,0.49,1.64c-0.06,0.06-0.13,0.12-0.19,0.18
					c-1.9-1.9-3.79-1.88-5.68,0.01C61.91,13.84,61.85,13.78,61.78,13.72z"/>
				<path class="st24" d="M44.6,13.9c-1.9-1.9-3.79-1.88-5.68,0.01c-0.06-0.06-0.13-0.13-0.19-0.19c1.29-2.46,0.84-4.31-2.16-5.28
					c0.09-0.11,0.18-0.23,0.26-0.34c0.86,0,1.73-0.07,2.57,0.02c0.9,0.1,1.27-0.3,1.47-1.1c0.19-0.77,0.49-1.52,0.74-2.28
					c0.17,0.07,0.31,0.09,0.32,0.13c0.38,2.81,1.88,4.02,4.81,3.45c-0.51,0.39-0.99,0.85-1.55,1.15c-1.15,0.61-1.56,1.38-0.89,2.61
					c0.27,0.49,0.33,1.09,0.49,1.64C44.72,13.78,44.66,13.84,44.6,13.9z"/>
				<path class="st24" d="M21.53,13.9c-1.9-1.9-3.79-1.88-5.68,0.01c-0.06-0.06-0.13-0.13-0.19-0.19c1.29-2.46,0.84-4.31-2.16-5.28
					c0.09-0.11,0.18-0.23,0.26-0.34c0.86,0,1.73-0.07,2.57,0.02c0.9,0.1,1.27-0.3,1.47-1.1C18,6.24,18.29,5.5,18.54,4.74
					c0.17,0.07,0.31,0.09,0.32,0.13c0.38,2.81,1.88,4.02,4.81,3.45c-0.51,0.39-0.99,0.85-1.55,1.15c-1.15,0.61-1.56,1.38-0.89,2.61
					c0.27,0.49,0.33,1.09,0.49,1.64C21.65,13.78,21.59,13.84,21.53,13.9z"/>
				<path class="st24" d="M-1.53,13.9c-1.9-1.9-3.79-1.88-5.68,0.01c-0.06-0.06-0.13-0.13-0.19-0.19c1.19-2.43,1.06-4.39-2.31-5.23
					c0.14-0.13,0.27-0.26,0.41-0.4c0.86,0,1.73-0.07,2.57,0.02c0.9,0.1,1.27-0.3,1.47-1.1c0.19-0.77,0.49-1.52,0.74-2.28
					C-4.35,4.8-4.23,4.81-4.2,4.87c0.54,1.03,0.31,2.62,1.38,3.12c0.93,0.43,2.22,0.09,3.74,0.09C0.09,8.71-0.38,9.17-0.95,9.47
					c-1.15,0.61-1.56,1.38-0.89,2.61c0.27,0.49,0.33,1.09,0.49,1.64C-1.41,13.78-1.47,13.84-1.53,13.9z"/>
				<path class="st24" d="M56.31,23.52c0.02,0.11,0.09,0.29,0.05,0.33c-0.14,0.11-0.2-0.03-0.24-0.14
					C56.18,23.65,56.24,23.58,56.31,23.52z"/>
				<path class="st24" d="M33.25,23.52c0.02,0.11,0.09,0.29,0.05,0.33c-0.14,0.11-0.2-0.03-0.24-0.14
					C33.12,23.65,33.18,23.58,33.25,23.52z"/>
				<path class="st24" d="M10.18,23.52c0.02,0.11,0.09,0.29,0.05,0.33c-0.14,0.11-0.2-0.03-0.24-0.14
					C10.05,23.65,10.12,23.58,10.18,23.52z"/>
				<path class="st24" d="M79.37,23.52c0.02,0.11,0.09,0.29,0.05,0.33c-0.14,0.11-0.2-0.03-0.24-0.14
					C79.24,23.65,79.31,23.58,79.37,23.52z"/>
				<path class="st24" d="M90.91,13.72c0.02,0.11,0.09,0.29,0.04,0.32c-0.14,0.11-0.19-0.03-0.23-0.14
					C90.78,13.84,90.84,13.78,90.91,13.72z"/>
				<path class="st24" d="M85.04,13.91c-0.04,0.12-0.1,0.25-0.24,0.14c-0.04-0.04,0.03-0.21,0.05-0.33
					C84.91,13.78,84.97,13.84,85.04,13.91z"/>
				<path class="st24" d="M67.84,13.72c0.02,0.11,0.09,0.29,0.04,0.32c-0.14,0.11-0.19-0.03-0.23-0.14
					C67.72,13.84,67.78,13.78,67.84,13.72z"/>
				<path class="st24" d="M61.97,13.91c-0.04,0.12-0.1,0.25-0.24,0.14c-0.04-0.04,0.03-0.21,0.05-0.33
					C61.85,13.78,61.91,13.84,61.97,13.91z"/>
				<path class="st24" d="M44.78,13.72c0.02,0.11,0.09,0.29,0.04,0.32c-0.14,0.11-0.19-0.03-0.23-0.14
					C44.66,13.84,44.72,13.78,44.78,13.72z"/>
				<path class="st24" d="M38.91,13.91c-0.04,0.12-0.1,0.25-0.24,0.14c-0.04-0.04,0.03-0.21,0.05-0.33
					C38.78,13.78,38.85,13.84,38.91,13.91z"/>
				<path class="st24" d="M21.72,13.72c0.02,0.11,0.09,0.29,0.04,0.32c-0.14,0.11-0.19-0.03-0.23-0.14
					C21.59,13.84,21.65,13.78,21.72,13.72z"/>
				<path class="st24" d="M15.85,13.91c-0.04,0.12-0.1,0.25-0.24,0.14c-0.04-0.04,0.03-0.21,0.05-0.33
					C15.72,13.78,15.79,13.84,15.85,13.91z"/>
			</g>
		</g>
	</g>
</g>
<g id="Capa_1">
</g>
<g id="REFERENTE" class="st64">
</g>
</svg>
