<?xml version="1.0" encoding="utf-8"?>
<!-- Generator: Adobe Illustrator 24.0.0, SVG Export Plug-In . SVG Version: 6.00 Build 0)  -->
<svg version="1.1" id="Capa_1" xmlns="http://www.w3.org/2000/svg" xmlns:xlink="http://www.w3.org/1999/xlink" x="0px" y="0px"
	 viewBox="0 0 1749.41 1091.75" style="enable-background:new 0 0 1749.41 1091.75;" xml:space="preserve">
<style type="text/css">
	.st0{clip-path:url(#SVGID_2_);fill:url(#SVGID_3_);}
	.st1{clip-path:url(#SVGID_2_);fill:url(#SVGID_4_);}
	.st2{clip-path:url(#SVGID_2_);fill:url(#SVGID_5_);}
	.st3{clip-path:url(#SVGID_2_);fill:url(#SVGID_6_);}
	.st4{clip-path:url(#SVGID_2_);fill:url(#SVGID_7_);}
	.st5{clip-path:url(#SVGID_2_);fill:url(#SVGID_8_);}
	.st6{clip-path:url(#SVGID_2_);fill:url(#SVGID_9_);}
	.st7{clip-path:url(#SVGID_2_);fill:url(#SVGID_10_);}
	.st8{clip-path:url(#SVGID_2_);fill:url(#SVGID_11_);}
	.st9{opacity:0.5;fill:#222769;}
	.st10{clip-path:url(#SVGID_13_);fill:url(#SVGID_14_);}
	.st11{clip-path:url(#SVGID_13_);fill:url(#SVGID_15_);}
	.st12{clip-path:url(#SVGID_13_);fill:url(#SVGID_16_);}
	.st13{clip-path:url(#SVGID_13_);fill:url(#SVGID_17_);}
	.st14{clip-path:url(#SVGID_13_);fill:url(#SVGID_18_);}
	.st15{clip-path:url(#SVGID_13_);fill:url(#SVGID_19_);}
	.st16{clip-path:url(#SVGID_13_);fill:url(#SVGID_20_);}
	.st17{clip-path:url(#SVGID_13_);fill:url(#SVGID_21_);}
	.st18{clip-path:url(#SVGID_13_);fill:url(#SVGID_22_);}
	.st19{clip-path:url(#SVGID_25_);fill:url(#SVGID_26_);}
	.st20{clip-path:url(#SVGID_25_);fill:url(#SVGID_27_);}
	.st21{clip-path:url(#SVGID_25_);fill:url(#SVGID_28_);}
	.st22{clip-path:url(#SVGID_25_);fill:url(#SVGID_29_);}
	.st23{clip-path:url(#SVGID_25_);fill:url(#SVGID_30_);}
	.st24{clip-path:url(#SVGID_25_);fill:url(#SVGID_31_);}
	.st25{clip-path:url(#SVGID_25_);fill:url(#SVGID_32_);}
	.st26{clip-path:url(#SVGID_25_);fill:url(#SVGID_33_);}
	.st27{clip-path:url(#SVGID_25_);fill:url(#SVGID_34_);}
	.st28{opacity:0.7;fill:#222769;}
	.st29{clip-path:url(#SVGID_37_);fill:url(#SVGID_38_);}
	.st30{clip-path:url(#SVGID_37_);fill:url(#SVGID_39_);}
	.st31{clip-path:url(#SVGID_37_);fill:url(#SVGID_40_);}
	.st32{clip-path:url(#SVGID_37_);fill:url(#SVGID_41_);}
	.st33{clip-path:url(#SVGID_37_);fill:url(#SVGID_42_);}
	.st34{clip-path:url(#SVGID_37_);fill:url(#SVGID_43_);}
	.st35{clip-path:url(#SVGID_37_);fill:url(#SVGID_44_);}
	.st36{clip-path:url(#SVGID_37_);fill:url(#SVGID_45_);}
	.st37{clip-path:url(#SVGID_37_);fill:url(#SVGID_46_);}
	.st38{clip-path:url(#SVGID_48_);fill:url(#SVGID_49_);}
	.st39{clip-path:url(#SVGID_48_);fill:url(#SVGID_50_);}
	.st40{clip-path:url(#SVGID_48_);fill:url(#SVGID_51_);}
	.st41{clip-path:url(#SVGID_48_);fill:url(#SVGID_52_);}
	.st42{clip-path:url(#SVGID_48_);fill:url(#SVGID_53_);}
	.st43{clip-path:url(#SVGID_48_);fill:url(#SVGID_54_);}
	.st44{clip-path:url(#SVGID_48_);fill:url(#SVGID_55_);}
	.st45{clip-path:url(#SVGID_48_);fill:url(#SVGID_56_);}
	.st46{clip-path:url(#SVGID_48_);fill:url(#SVGID_57_);}
	.st47{clip-path:url(#SVGID_59_);fill:url(#SVGID_60_);}
	.st48{clip-path:url(#SVGID_59_);fill:url(#SVGID_61_);}
	.st49{clip-path:url(#SVGID_59_);fill:url(#SVGID_62_);}
	.st50{clip-path:url(#SVGID_59_);fill:url(#SVGID_63_);}
	.st51{clip-path:url(#SVGID_59_);fill:url(#SVGID_64_);}
	.st52{clip-path:url(#SVGID_59_);fill:url(#SVGID_65_);}
	.st53{clip-path:url(#SVGID_59_);fill:url(#SVGID_66_);}
	.st54{clip-path:url(#SVGID_59_);fill:url(#SVGID_67_);}
	.st55{clip-path:url(#SVGID_59_);fill:url(#SVGID_68_);}
	.st56{clip-path:url(#SVGID_71_);fill:url(#SVGID_72_);}
	.st57{clip-path:url(#SVGID_71_);fill:url(#SVGID_73_);}
	.st58{clip-path:url(#SVGID_71_);fill:url(#SVGID_74_);}
	.st59{clip-path:url(#SVGID_71_);fill:url(#SVGID_75_);}
	.st60{clip-path:url(#SVGID_71_);fill:url(#SVGID_76_);}
	.st61{clip-path:url(#SVGID_71_);fill:url(#SVGID_77_);}
	.st62{clip-path:url(#SVGID_71_);fill:url(#SVGID_78_);}
	.st63{clip-path:url(#SVGID_71_);fill:url(#SVGID_79_);}
	.st64{clip-path:url(#SVGID_71_);fill:url(#SVGID_80_);}
	.st65{fill:#FFFFFF;}
	.st66{clip-path:url(#SVGID_83_);fill:url(#SVGID_84_);}
	.st67{clip-path:url(#SVGID_83_);fill:url(#SVGID_85_);}
	.st68{clip-path:url(#SVGID_83_);fill:url(#SVGID_86_);}
	.st69{clip-path:url(#SVGID_83_);fill:url(#SVGID_87_);}
	.st70{clip-path:url(#SVGID_83_);fill:url(#SVGID_88_);}
	.st71{clip-path:url(#SVGID_83_);fill:url(#SVGID_89_);}
	.st72{clip-path:url(#SVGID_83_);fill:url(#SVGID_90_);}
	.st73{clip-path:url(#SVGID_83_);fill:url(#SVGID_91_);}
	.st74{clip-path:url(#SVGID_83_);fill:url(#SVGID_92_);}
	.st75{clip-path:url(#SVGID_95_);fill:url(#SVGID_96_);}
	.st76{clip-path:url(#SVGID_95_);fill:url(#SVGID_97_);}
	.st77{clip-path:url(#SVGID_95_);fill:url(#SVGID_98_);}
	.st78{clip-path:url(#SVGID_95_);fill:url(#SVGID_99_);}
	.st79{clip-path:url(#SVGID_95_);fill:url(#SVGID_100_);}
	.st80{clip-path:url(#SVGID_95_);fill:url(#SVGID_101_);}
	.st81{clip-path:url(#SVGID_95_);fill:url(#SVGID_102_);}
	.st82{clip-path:url(#SVGID_95_);fill:url(#SVGID_103_);}
	.st83{clip-path:url(#SVGID_95_);fill:url(#SVGID_104_);}
</style>
<g>
	<defs>
		<rect id="SVGID_93_" x="0.19" y="0.41" width="1749.07" height="1092.07"/>
	</defs>
	<linearGradient id="SVGID_2_" gradientUnits="userSpaceOnUse" x1="0.1919" y1="546.4445" x2="1749.2588" y2="546.4445">
		<stop  offset="0" style="stop-color:#5C83C0"/>
		<stop  offset="1" style="stop-color:#6C7C9F"/>
	</linearGradient>
	<use xlink:href="#SVGID_93_"  style="overflow:visible;fill:url(#SVGID_2_);"/>
	<clipPath id="SVGID_3_">
		<use xlink:href="#SVGID_93_"  style="overflow:visible;"/>
	</clipPath>
	
		<linearGradient id="SVGID_4_" gradientUnits="userSpaceOnUse" x1="1688.6219" y1="-6463.311" x2="1938.1337" y2="-6463.311" gradientTransform="matrix(-0.7071 -0.7071 0.7071 -0.7071 6009.8618 -3168.8003)">
		<stop  offset="0" style="stop-color:#74798E"/>
		<stop  offset="1" style="stop-color:#789EDC"/>
	</linearGradient>
	<path style="clip-path:url(#SVGID_3_);fill:url(#SVGID_4_);" d="M245.57,207.41L245.57,207.41c46.77-46.77,46.77-122.6,0-169.37
		l-7.06-7.06c-46.77-46.77-122.6-46.77-169.37,0l0,0c-46.77,46.77-46.77,122.6,0,169.37l7.06,7.06
		C122.97,254.19,198.8,254.19,245.57,207.41z"/>
	<linearGradient id="SVGID_5_" gradientUnits="userSpaceOnUse" x1="-175.047" y1="187.2621" x2="645.2318" y2="187.2621">
		<stop  offset="0" style="stop-color:#74798E"/>
		<stop  offset="1" style="stop-color:#6C9AE2"/>
	</linearGradient>
	<path style="clip-path:url(#SVGID_3_);fill:url(#SVGID_5_);" d="M319.29-21.7c85.64,85.64,80.98,227.37-13.96,306.91
		c-83.11,69.62-206.84,60.57-283.5-16.1l0,0c-43.73-43.73-114.63-43.73-158.36,0l0,0c-51.36,51.36-51.36,134.63,0,185.99
		l11.03,11.03c176.32,176.32,462.18,176.32,638.49,0l0,0c176.32-176.32,176.32-462.18,0-638.49l-14.35-14.35
		c-49.53-49.53-129.83-49.53-179.35,0l0,0C273.73-141.14,273.73-67.27,319.29-21.7L319.29-21.7z"/>
	<linearGradient id="SVGID_6_" gradientUnits="userSpaceOnUse" x1="-74.0182" y1="424.2279" x2="1234.4364" y2="424.2279">
		<stop  offset="0" style="stop-color:#74798E"/>
		<stop  offset="0.5392" style="stop-color:#6D96D9"/>
		<stop  offset="1" style="stop-color:#74798E"/>
	</linearGradient>
	<path style="clip-path:url(#SVGID_3_);fill:url(#SVGID_6_);" d="M1109.76,50.92l-6.76-6.76c-3.8-3.8-7.8-7.29-11.96-10.47
		c-1.5-1.67-3.05-3.32-4.66-4.93l-258.8-258.8c-46.36-46.36-119.75-48.12-163.93-3.93l0,0c-44.18,44.18-42.42,117.58,3.93,163.93
		l251.71,251.71c4.14,6.39,9.01,12.46,14.61,18.06l0,0c80.74,80.74,76.35,214.37-13.16,289.36c-75.37,63.14-186.17,57.64-258.83-7.2
		c-0.82-0.87-1.66-1.74-2.51-2.6l-6.76-6.76c-166.23-166.23-435.75-166.23-601.98,0l0,0c-166.23,166.23-166.23,435.75,0,601.98
		l3.63,3.63c48.42,48.42,126.93,48.42,175.36,0l0,0c41.23-41.23,41.23-108.08,0-149.31l0,0c-72.28-72.28-80.82-188.94-15.17-267.29
		c73.43-87.65,203.07-93.66,284.24-18.08c1.74,1.98,3.55,3.92,5.44,5.81l3.63,3.63c166.23,166.23,435.75,166.23,601.98,0l0,0
		C1275.99,486.66,1275.99,217.15,1109.76,50.92z"/>
	
		<linearGradient id="SVGID_7_" gradientUnits="userSpaceOnUse" x1="586.3475" y1="-5549.2051" x2="1007.4491" y2="-5567.4722" gradientTransform="matrix(-0.2929 -0.9561 0.9561 -0.2929 6352.3687 -502.8109)">
		<stop  offset="0" style="stop-color:#74798E"/>
		<stop  offset="1" style="stop-color:#7AACFA"/>
	</linearGradient>
	<path style="clip-path:url(#SVGID_3_);fill:url(#SVGID_7_);" d="M835.51,467.26L835.51,467.26
		c63.24-19.37,98.81-86.35,79.43-149.59l-2.92-9.54c-19.37-63.24-86.35-98.81-149.59-79.43l0,0
		c-63.24,19.37-98.81,86.35-79.43,149.59l2.92,9.54C705.29,451.07,772.27,486.63,835.51,467.26z"/>
	
		<linearGradient id="SVGID_8_" gradientUnits="userSpaceOnUse" x1="-76.7231" y1="-1390.4352" x2="172.7886" y2="-1390.4352" gradientTransform="matrix(0.7071 -0.7071 0.7071 0.7071 2440.1904 2039.7244)">
		<stop  offset="0" style="stop-color:#74798E"/>
		<stop  offset="1" style="stop-color:#7AACFA"/>
	</linearGradient>
	<path style="clip-path:url(#SVGID_3_);fill:url(#SVGID_8_);" d="M1402.75,1110.79L1402.75,1110.79
		c46.77,46.77,122.6,46.77,169.37,0l7.06-7.06c46.77-46.77,46.77-122.6,0-169.37l0,0c-46.77-46.77-122.6-46.77-169.37,0l-7.06,7.06
		C1355.98,988.19,1355.98,1064.02,1402.75,1110.79z"/>
	
		<linearGradient id="SVGID_9_" gradientUnits="userSpaceOnUse" x1="-175.4686" y1="-2014.1941" x2="74.0431" y2="-2014.1941" gradientTransform="matrix(0.7071 -0.7071 0.7071 0.7071 2852.3328 1787.2061)">
		<stop  offset="0" style="stop-color:#74798E"/>
		<stop  offset="1" style="stop-color:#7AACFA"/>
	</linearGradient>
	<path style="clip-path:url(#SVGID_3_);fill:url(#SVGID_9_);" d="M1304.01,487.03L1304.01,487.03c46.77,46.77,122.6,46.77,169.37,0
		l7.06-7.06c46.77-46.77,46.77-122.6,0-169.37l0,0c-46.77-46.77-122.6-46.77-169.37,0l-7.06,7.06
		C1257.24,364.43,1257.24,440.26,1304.01,487.03z"/>
	<linearGradient id="SVGID_10_" gradientUnits="userSpaceOnUse" x1="1043.2218" y1="342.3909" x2="1865.4462" y2="342.3909">
		<stop  offset="0" style="stop-color:#74798E"/>
		<stop  offset="1" style="stop-color:#7AACFA"/>
	</linearGradient>
	<path style="clip-path:url(#SVGID_3_);fill:url(#SVGID_10_);" d="M1245.37,258.19c85.64-85.64,227.37-80.98,306.91,13.96
		c69.62,83.11,60.57,206.84-16.1,283.5l0,0c-43.73,43.73-43.73,114.63,0,158.36l0,0c51.36,51.36,134.63,51.36,185.99,0l11.03-11.03
		c176.32-176.32,176.32-462.18,0-638.49l0,0c-176.32-176.32-462.18-176.32-638.49,0l-14.35,14.35
		c-49.53,49.53-49.53,129.83,0,179.35l0,0C1125.93,303.75,1199.81,303.75,1245.37,258.19L1245.37,258.19z"/>
	<linearGradient id="SVGID_11_" gradientUnits="userSpaceOnUse" x1="-182" y1="1020.4388" x2="1952.4133" y2="1020.4388">
		<stop  offset="0" style="stop-color:#7583A4"/>
		<stop  offset="1" style="stop-color:#79A0E0"/>
	</linearGradient>
	<path style="clip-path:url(#SVGID_3_);fill:url(#SVGID_11_);" d="M1820.18,713.02l-14.35-14.35c-7.43-7.43-15.56-13.74-24.18-18.95
		c-172.76-165.19-446.72-163.58-617.51,5.72c-38.27,37.94-76.29,76.14-114.42,114.22c-28.34,28.3-56.69,56.59-85.03,84.89
		c-26.67,26.63-53.14,62.52-86.99,79.33c-59.3,29.44-156.32,21.35-204.76-27.09c0,0-113.96-113.96-164.63-164.63
		c-14.16-20.28-30.28-39.6-48.38-57.7l-6.76-6.76c-46.69-46.69-122.4-46.69-169.1,0l0,0c-42.96,42.96-42.96,112.61,0,155.57l0,0
		c80.74,80.74,76.35,214.37-13.16,289.36c-78.35,65.64-195.01,57.1-267.29-15.17l0,0c-41.23-41.23-108.08-41.23-149.31,0l0,0
		c-48.42,48.42-48.42,126.93,0,175.36l3.63,3.63c166.23,166.23,435.75,166.23,601.98,0l0,0c49.44-49.44,84.17-108.02,104.21-170.29
		c141.73,100.62,331.23,104.18,476.33,10.65c14.77-5.62,29.52-24.46,40.86-34.78c27.4-24.94,54.37-50.35,81.31-75.79
		c57.94-54.72,115.03-110.3,172.35-165.62c79.76-76.97,198.69-96.9,285.77-23.07c1.82,2.1,3.72,4.15,5.71,6.14v0
		c85.64,85.64,80.98,227.37-13.96,306.91c-83.11,69.62-206.84,60.57-283.5-16.1v0c-43.73-43.73-114.63-43.73-158.36,0l0,0
		c-51.36,51.36-51.36,134.63,0,185.99l11.03,11.03c176.32,176.32,462.18,176.32,638.49,0l0,0
		C1996.49,1175.19,1996.49,889.33,1820.18,713.02z"/>
</g>
</svg>
