<?xml version="1.0" encoding="utf-8"?>
<!-- Generator: Adobe Illustrator 24.0.0, SVG Export Plug-In . SVG Version: 6.00 Build 0)  -->
<svg version="1.1" id="Capa_1" xmlns="http://www.w3.org/2000/svg" xmlns:xlink="http://www.w3.org/1999/xlink" x="0px" y="0px"
	 viewBox="0 0 1366 1058" style="enable-background:new 0 0 1366 1058;" xml:space="preserve">
<style type="text/css">
	.st0{clip-path:url(#SVGID_2_);fill:url(#SVGID_3_);}
	.st1{clip-path:url(#SVGID_2_);fill:url(#SVGID_4_);}
	.st2{clip-path:url(#SVGID_2_);fill:url(#SVGID_5_);}
	.st3{clip-path:url(#SVGID_2_);fill:url(#SVGID_6_);}
	.st4{clip-path:url(#SVGID_2_);fill:url(#SVGID_7_);}
	.st5{clip-path:url(#SVGID_2_);fill:url(#SVGID_8_);}
	.st6{clip-path:url(#SVGID_2_);fill:url(#SVGID_9_);}
	.st7{clip-path:url(#SVGID_2_);fill:url(#SVGID_10_);}
	.st8{clip-path:url(#SVGID_2_);fill:url(#SVGID_11_);}
	.st9{opacity:0.5;fill:#222769;}
	.st10{clip-path:url(#SVGID_13_);fill:url(#SVGID_14_);}
	.st11{clip-path:url(#SVGID_13_);fill:url(#SVGID_15_);}
	.st12{clip-path:url(#SVGID_13_);fill:url(#SVGID_16_);}
	.st13{clip-path:url(#SVGID_13_);fill:url(#SVGID_17_);}
	.st14{clip-path:url(#SVGID_13_);fill:url(#SVGID_18_);}
	.st15{clip-path:url(#SVGID_13_);fill:url(#SVGID_19_);}
	.st16{clip-path:url(#SVGID_13_);fill:url(#SVGID_20_);}
	.st17{clip-path:url(#SVGID_13_);fill:url(#SVGID_21_);}
	.st18{clip-path:url(#SVGID_13_);fill:url(#SVGID_22_);}
	.st19{clip-path:url(#SVGID_25_);fill:url(#SVGID_26_);}
	.st20{clip-path:url(#SVGID_25_);fill:url(#SVGID_27_);}
	.st21{clip-path:url(#SVGID_25_);fill:url(#SVGID_28_);}
	.st22{clip-path:url(#SVGID_25_);fill:url(#SVGID_29_);}
	.st23{clip-path:url(#SVGID_25_);fill:url(#SVGID_30_);}
	.st24{clip-path:url(#SVGID_25_);fill:url(#SVGID_31_);}
	.st25{clip-path:url(#SVGID_25_);fill:url(#SVGID_32_);}
	.st26{clip-path:url(#SVGID_25_);fill:url(#SVGID_33_);}
	.st27{clip-path:url(#SVGID_25_);fill:url(#SVGID_34_);}
	.st28{opacity:0.7;fill:#222769;}
	.st29{clip-path:url(#SVGID_37_);fill:url(#SVGID_38_);}
	.st30{clip-path:url(#SVGID_37_);fill:url(#SVGID_39_);}
	.st31{clip-path:url(#SVGID_37_);fill:url(#SVGID_40_);}
	.st32{clip-path:url(#SVGID_37_);fill:url(#SVGID_41_);}
	.st33{clip-path:url(#SVGID_37_);fill:url(#SVGID_42_);}
	.st34{clip-path:url(#SVGID_37_);fill:url(#SVGID_43_);}
	.st35{clip-path:url(#SVGID_37_);fill:url(#SVGID_44_);}
	.st36{clip-path:url(#SVGID_37_);fill:url(#SVGID_45_);}
	.st37{clip-path:url(#SVGID_37_);fill:url(#SVGID_46_);}
	.st38{clip-path:url(#SVGID_48_);fill:url(#SVGID_49_);}
	.st39{clip-path:url(#SVGID_48_);fill:url(#SVGID_50_);}
	.st40{clip-path:url(#SVGID_48_);fill:url(#SVGID_51_);}
	.st41{clip-path:url(#SVGID_48_);fill:url(#SVGID_52_);}
	.st42{clip-path:url(#SVGID_48_);fill:url(#SVGID_53_);}
	.st43{clip-path:url(#SVGID_48_);fill:url(#SVGID_54_);}
	.st44{clip-path:url(#SVGID_48_);fill:url(#SVGID_55_);}
	.st45{clip-path:url(#SVGID_48_);fill:url(#SVGID_56_);}
	.st46{clip-path:url(#SVGID_48_);fill:url(#SVGID_57_);}
	.st47{clip-path:url(#SVGID_59_);fill:url(#SVGID_60_);}
	.st48{clip-path:url(#SVGID_59_);fill:url(#SVGID_61_);}
	.st49{clip-path:url(#SVGID_59_);fill:url(#SVGID_62_);}
	.st50{clip-path:url(#SVGID_59_);fill:url(#SVGID_63_);}
	.st51{clip-path:url(#SVGID_59_);fill:url(#SVGID_64_);}
	.st52{clip-path:url(#SVGID_59_);fill:url(#SVGID_65_);}
	.st53{clip-path:url(#SVGID_59_);fill:url(#SVGID_66_);}
	.st54{clip-path:url(#SVGID_59_);fill:url(#SVGID_67_);}
	.st55{clip-path:url(#SVGID_59_);fill:url(#SVGID_68_);}
	.st56{clip-path:url(#SVGID_71_);fill:url(#SVGID_72_);}
	.st57{clip-path:url(#SVGID_71_);fill:url(#SVGID_73_);}
	.st58{clip-path:url(#SVGID_71_);fill:url(#SVGID_74_);}
	.st59{clip-path:url(#SVGID_71_);fill:url(#SVGID_75_);}
	.st60{clip-path:url(#SVGID_71_);fill:url(#SVGID_76_);}
	.st61{clip-path:url(#SVGID_71_);fill:url(#SVGID_77_);}
	.st62{clip-path:url(#SVGID_71_);fill:url(#SVGID_78_);}
	.st63{clip-path:url(#SVGID_71_);fill:url(#SVGID_79_);}
	.st64{clip-path:url(#SVGID_71_);fill:url(#SVGID_80_);}
	.st65{fill:#FFFFFF;}
	.st66{clip-path:url(#SVGID_83_);fill:url(#SVGID_84_);}
	.st67{clip-path:url(#SVGID_83_);fill:url(#SVGID_85_);}
	.st68{clip-path:url(#SVGID_83_);fill:url(#SVGID_86_);}
	.st69{clip-path:url(#SVGID_83_);fill:url(#SVGID_87_);}
	.st70{clip-path:url(#SVGID_83_);fill:url(#SVGID_88_);}
	.st71{clip-path:url(#SVGID_83_);fill:url(#SVGID_89_);}
	.st72{clip-path:url(#SVGID_83_);fill:url(#SVGID_90_);}
	.st73{clip-path:url(#SVGID_83_);fill:url(#SVGID_91_);}
	.st74{clip-path:url(#SVGID_83_);fill:url(#SVGID_92_);}
</style>
<g>
	<defs>
		<rect id="SVGID_35_" x="-3.13" y="-0.35" width="1369.13" height="1057.96"/>
	</defs>
	<linearGradient id="SVGID_2_" gradientUnits="userSpaceOnUse" x1="-3.1256" y1="528.6269" x2="1366" y2="528.6269">
		<stop  offset="0" style="stop-color:#5D81C4"/>
		<stop  offset="1" style="stop-color:#6C7CA1"/>
	</linearGradient>
	<use xlink:href="#SVGID_35_"  style="overflow:visible;fill:url(#SVGID_2_);"/>
	<clipPath id="SVGID_3_">
		<use xlink:href="#SVGID_35_"  style="overflow:visible;"/>
	</clipPath>
	
		<linearGradient id="SVGID_4_" gradientUnits="userSpaceOnUse" x1="3217.1431" y1="-10546.2832" x2="3468.1873" y2="-10546.2832" gradientTransform="matrix(-0.7071 -0.7071 0.7071 -0.7071 9956.9609 -4994.1606)">
		<stop  offset="0" style="stop-color:#74798F"/>
		<stop  offset="1" style="stop-color:#799CE0"/>
	</linearGradient>
	<path style="clip-path:url(#SVGID_3_);fill:url(#SVGID_4_);" d="M224.75,188.32L224.75,188.32c47.06-47.06,47.06-123.36,0-170.41
		l-7.1-7.1c-47.06-47.06-123.36-47.06-170.41,0l0,0c-47.06,47.06-47.06,123.36,0,170.41l7.1,7.1
		C101.39,235.38,177.69,235.38,224.75,188.32z"/>
	<linearGradient id="SVGID_5_" gradientUnits="userSpaceOnUse" x1="-198.4565" y1="168.0481" x2="626.8608" y2="168.0481">
		<stop  offset="0" style="stop-color:#74798F"/>
		<stop  offset="1" style="stop-color:#6D98E7"/>
	</linearGradient>
	<path style="clip-path:url(#SVGID_3_);fill:url(#SVGID_5_);" d="M298.92-42.2c86.16,86.16,81.48,228.77-14.04,308.8
		C201.26,336.65,76.77,327.54-0.36,250.4l0,0c-44-44-115.34-44-159.33,0l0,0c-51.68,51.68-51.68,135.46,0,187.14l11.09,11.09
		c177.4,177.4,465.02,177.4,642.42,0l0,0c177.4-177.4,177.4-465.02,0-642.42l-14.44-14.44c-49.83-49.83-130.62-49.83-180.45,0l0,0
		C253.08-162.37,253.08-88.04,298.92-42.2L298.92-42.2z"/>
	<linearGradient id="SVGID_6_" gradientUnits="userSpaceOnUse" x1="-96.8071" y1="406.4695" x2="1219.6846" y2="406.4695">
		<stop  offset="0" style="stop-color:#74798F"/>
		<stop  offset="0.5392" style="stop-color:#6E94DD"/>
		<stop  offset="1" style="stop-color:#74798F"/>
	</linearGradient>
	<path style="clip-path:url(#SVGID_3_);fill:url(#SVGID_6_);" d="M1094.24,30.86l-6.81-6.81c-3.83-3.83-7.85-7.33-12.03-10.54
		c-1.51-1.68-3.07-3.34-4.69-4.96L810.33-251.82c-46.64-46.64-120.49-48.41-164.94-3.96l0,0c-44.45,44.45-42.68,118.3,3.96,164.94
		L902.6,162.41c4.17,6.43,9.06,12.53,14.7,18.17l0,0c81.23,81.23,76.82,215.68-13.24,291.14c-75.83,63.53-187.31,57.99-260.42-7.24
		c-0.83-0.88-1.67-1.75-2.53-2.61l-6.81-6.81c-167.25-167.25-438.43-167.25-605.68,0l0,0c-167.25,167.25-167.25,438.43,0,605.68
		l3.66,3.66c48.72,48.72,127.71,48.72,176.44,0l0,0c41.48-41.48,41.48-108.74,0-150.22l0,0c-72.72-72.72-81.32-190.1-15.27-268.93
		c73.88-88.18,204.32-94.24,285.98-18.19c1.75,1.99,3.57,3.94,5.47,5.84l3.66,3.66c167.25,167.25,438.43,167.25,605.68,0l0,0
		C1261.5,469.29,1261.5,198.12,1094.24,30.86z"/>
	
		<linearGradient id="SVGID_7_" gradientUnits="userSpaceOnUse" x1="1016.0382" y1="-9322.9092" x2="1439.7263" y2="-9341.2891" gradientTransform="matrix(-0.2929 -0.9561 0.9561 -0.2929 10069.4668 -1214.187)">
		<stop  offset="0" style="stop-color:#74798F"/>
		<stop  offset="1" style="stop-color:#7BAAFF"/>
	</linearGradient>
	<path style="clip-path:url(#SVGID_3_);fill:url(#SVGID_7_);" d="M818.31,449.77L818.31,449.77
		c63.63-19.49,99.41-86.88,79.92-150.51l-2.94-9.6c-19.49-63.63-86.88-99.41-150.51-79.92l0,0
		c-63.63,19.49-99.41,86.88-79.92,150.51l2.94,9.6C687.29,433.48,754.68,469.26,818.31,449.77z"/>
	
		<linearGradient id="SVGID_8_" gradientUnits="userSpaceOnUse" x1="-832.937" y1="-3044.6526" x2="-581.8927" y2="-3044.6526" gradientTransform="matrix(0.7071 -0.7071 0.7071 0.7071 4130.9048 2661.1675)">
		<stop  offset="0" style="stop-color:#74798F"/>
		<stop  offset="1" style="stop-color:#7BAAFF"/>
	</linearGradient>
	<path style="clip-path:url(#SVGID_3_);fill:url(#SVGID_8_);" d="M1389.03,1097.25L1389.03,1097.25
		c47.06,47.06,123.36,47.06,170.41,0l7.1-7.1c47.06-47.06,47.06-123.36,0-170.41l0,0c-47.06-47.06-123.36-47.06-170.41,0l-7.1,7.1
		C1341.98,973.89,1341.98,1050.19,1389.03,1097.25z"/>
	
		<linearGradient id="SVGID_9_" gradientUnits="userSpaceOnUse" x1="-929.4023" y1="-3671.5496" x2="-678.3579" y2="-3671.5496" gradientTransform="matrix(0.7071 -0.7071 0.7071 0.7071 4543.0469 2408.6489)">
		<stop  offset="0" style="stop-color:#74798F"/>
		<stop  offset="1" style="stop-color:#7BAAFF"/>
	</linearGradient>
	<path style="clip-path:url(#SVGID_3_);fill:url(#SVGID_9_);" d="M1289.68,469.66L1289.68,469.66c47.06,47.06,123.36,47.06,170.41,0
		l7.1-7.1c47.06-47.06,47.06-123.36,0-170.41l0,0c-47.06-47.06-123.36-47.06-170.41,0l-7.1,7.1
		C1242.62,346.3,1242.62,422.6,1289.68,469.66z"/>
	<linearGradient id="SVGID_10_" gradientUnits="userSpaceOnUse" x1="1027.2954" y1="324.1298" x2="1854.5702" y2="324.1298">
		<stop  offset="0" style="stop-color:#74798F"/>
		<stop  offset="1" style="stop-color:#7BAAFF"/>
	</linearGradient>
	<path style="clip-path:url(#SVGID_3_);fill:url(#SVGID_10_);" d="M1230.69,239.41c86.16-86.16,228.77-81.48,308.8,14.04
		c70.05,83.62,60.94,208.11-16.19,285.24l0,0c-44,44-44,115.34,0,159.33l0,0c51.68,51.68,135.46,51.68,187.14,0l11.09-11.09
		c177.4-177.4,177.4-465.02,0-642.42l0,0c-177.4-177.4-465.02-177.4-642.42,0l-14.44,14.44c-49.83,49.83-49.83,130.62,0,180.45l0,0
		C1110.51,285.26,1184.84,285.26,1230.69,239.41L1230.69,239.41z"/>
	<linearGradient id="SVGID_11_" gradientUnits="userSpaceOnUse" x1="-205.4522" y1="1006.3426" x2="1942.0717" y2="1006.3426">
		<stop  offset="0" style="stop-color:#7582A6"/>
		<stop  offset="1" style="stop-color:#7A9EE4"/>
	</linearGradient>
	<path style="clip-path:url(#SVGID_3_);fill:url(#SVGID_11_);" d="M1809.02,697.03l-14.44-14.44c-7.48-7.48-15.66-13.83-24.32-19.06
		c-173.82-166.21-449.47-164.59-621.3,5.76c-38.5,38.18-76.76,76.61-115.13,114.92c-28.52,28.47-57.03,56.94-85.55,85.41
		c-26.84,26.79-53.47,62.91-87.52,79.81c-59.67,29.63-157.28,21.48-206.02-27.25c0,0-114.66-114.66-165.64-165.64
		c-14.24-20.4-30.47-39.84-48.68-58.05l-6.81-6.81c-46.98-46.98-123.15-46.98-170.13,0l0,0c-43.22,43.22-43.22,113.3,0,156.52l0,0
		c81.23,81.23,76.82,215.68-13.24,291.14c-78.83,66.05-196.21,57.46-268.93-15.27l0,0c-41.48-41.48-108.74-41.48-150.22,0l0,0
		c-48.72,48.72-48.72,127.71,0,176.44l3.66,3.66c167.25,167.25,438.43,167.25,605.68,0l0,0c49.74-49.74,84.69-108.68,104.85-171.34
		c142.6,101.24,333.26,104.82,479.26,10.71c14.86-5.65,29.7-24.61,41.11-34.99c27.57-25.1,54.71-50.66,81.81-76.26
		c58.3-55.06,115.73-110.97,173.41-166.64c80.25-77.44,199.91-97.49,287.53-23.22c1.83,2.11,3.74,4.17,5.75,6.18v0
		c86.16,86.16,81.48,228.77-14.04,308.8c-83.62,70.05-208.11,60.94-285.24-16.19v0c-44-44-115.34-44-159.33,0l0,0
		c-51.68,51.68-51.68,135.46,0,187.14l11.09,11.09c177.4,177.4,465.02,177.4,642.42,0l0,0
		C1986.42,1162.05,1986.42,874.43,1809.02,697.03z"/>
</g>
<rect x="-1.48" y="-0.28" class="st28" width="1369.13" height="1057.96"/>
</svg>
