<?xml version="1.0" encoding="utf-8"?>
<!-- Generator: Adobe Illustrator 24.0.0, SVG Export Plug-In . SVG Version: 6.00 Build 0)  -->
<svg version="1.1" id="Capa_1" xmlns="http://www.w3.org/2000/svg" xmlns:xlink="http://www.w3.org/1999/xlink" x="0px" y="0px"
	 viewBox="0 0 667.28 131.29" style="enable-background:new 0 0 667.28 131.29;" xml:space="preserve">
<style type="text/css">
	.st0{clip-path:url(#SVGID_2_);fill:url(#SVGID_3_);}
	.st1{clip-path:url(#SVGID_2_);fill:url(#SVGID_4_);}
	.st2{clip-path:url(#SVGID_2_);fill:url(#SVGID_5_);}
	.st3{clip-path:url(#SVGID_2_);fill:url(#SVGID_6_);}
	.st4{clip-path:url(#SVGID_2_);fill:url(#SVGID_7_);}
	.st5{clip-path:url(#SVGID_2_);fill:url(#SVGID_8_);}
	.st6{clip-path:url(#SVGID_2_);fill:url(#SVGID_9_);}
	.st7{clip-path:url(#SVGID_2_);fill:url(#SVGID_10_);}
	.st8{clip-path:url(#SVGID_2_);fill:url(#SVGID_11_);}
	.st9{opacity:0.5;fill:#222769;}
	.st10{clip-path:url(#SVGID_13_);fill:url(#SVGID_14_);}
	.st11{clip-path:url(#SVGID_13_);fill:url(#SVGID_15_);}
	.st12{clip-path:url(#SVGID_13_);fill:url(#SVGID_16_);}
	.st13{clip-path:url(#SVGID_13_);fill:url(#SVGID_17_);}
	.st14{clip-path:url(#SVGID_13_);fill:url(#SVGID_18_);}
	.st15{clip-path:url(#SVGID_13_);fill:url(#SVGID_19_);}
	.st16{clip-path:url(#SVGID_13_);fill:url(#SVGID_20_);}
	.st17{clip-path:url(#SVGID_13_);fill:url(#SVGID_21_);}
	.st18{clip-path:url(#SVGID_13_);fill:url(#SVGID_22_);}
	.st19{clip-path:url(#SVGID_25_);fill:url(#SVGID_26_);}
	.st20{clip-path:url(#SVGID_25_);fill:url(#SVGID_27_);}
	.st21{clip-path:url(#SVGID_25_);fill:url(#SVGID_28_);}
	.st22{clip-path:url(#SVGID_25_);fill:url(#SVGID_29_);}
	.st23{clip-path:url(#SVGID_25_);fill:url(#SVGID_30_);}
	.st24{clip-path:url(#SVGID_25_);fill:url(#SVGID_31_);}
	.st25{clip-path:url(#SVGID_25_);fill:url(#SVGID_32_);}
	.st26{clip-path:url(#SVGID_25_);fill:url(#SVGID_33_);}
	.st27{clip-path:url(#SVGID_25_);fill:url(#SVGID_34_);}
	.st28{opacity:0.7;fill:#222769;}
	.st29{clip-path:url(#SVGID_37_);fill:url(#SVGID_38_);}
	.st30{clip-path:url(#SVGID_37_);fill:url(#SVGID_39_);}
	.st31{clip-path:url(#SVGID_37_);fill:url(#SVGID_40_);}
	.st32{clip-path:url(#SVGID_37_);fill:url(#SVGID_41_);}
	.st33{clip-path:url(#SVGID_37_);fill:url(#SVGID_42_);}
	.st34{clip-path:url(#SVGID_37_);fill:url(#SVGID_43_);}
	.st35{clip-path:url(#SVGID_37_);fill:url(#SVGID_44_);}
	.st36{clip-path:url(#SVGID_37_);fill:url(#SVGID_45_);}
	.st37{clip-path:url(#SVGID_37_);fill:url(#SVGID_46_);}
	.st38{clip-path:url(#SVGID_48_);fill:url(#SVGID_49_);}
	.st39{clip-path:url(#SVGID_48_);fill:url(#SVGID_50_);}
	.st40{clip-path:url(#SVGID_48_);fill:url(#SVGID_51_);}
	.st41{clip-path:url(#SVGID_48_);fill:url(#SVGID_52_);}
	.st42{clip-path:url(#SVGID_48_);fill:url(#SVGID_53_);}
	.st43{clip-path:url(#SVGID_48_);fill:url(#SVGID_54_);}
	.st44{clip-path:url(#SVGID_48_);fill:url(#SVGID_55_);}
	.st45{clip-path:url(#SVGID_48_);fill:url(#SVGID_56_);}
	.st46{clip-path:url(#SVGID_48_);fill:url(#SVGID_57_);}
	.st47{clip-path:url(#SVGID_59_);fill:url(#SVGID_60_);}
	.st48{clip-path:url(#SVGID_59_);fill:url(#SVGID_61_);}
	.st49{clip-path:url(#SVGID_59_);fill:url(#SVGID_62_);}
	.st50{clip-path:url(#SVGID_59_);fill:url(#SVGID_63_);}
	.st51{clip-path:url(#SVGID_59_);fill:url(#SVGID_64_);}
	.st52{clip-path:url(#SVGID_59_);fill:url(#SVGID_65_);}
	.st53{clip-path:url(#SVGID_59_);fill:url(#SVGID_66_);}
	.st54{clip-path:url(#SVGID_59_);fill:url(#SVGID_67_);}
	.st55{clip-path:url(#SVGID_59_);fill:url(#SVGID_68_);}
	.st56{clip-path:url(#SVGID_71_);fill:url(#SVGID_72_);}
	.st57{clip-path:url(#SVGID_71_);fill:url(#SVGID_73_);}
	.st58{clip-path:url(#SVGID_71_);fill:url(#SVGID_74_);}
	.st59{clip-path:url(#SVGID_71_);fill:url(#SVGID_75_);}
	.st60{clip-path:url(#SVGID_71_);fill:url(#SVGID_76_);}
	.st61{clip-path:url(#SVGID_71_);fill:url(#SVGID_77_);}
	.st62{clip-path:url(#SVGID_71_);fill:url(#SVGID_78_);}
	.st63{clip-path:url(#SVGID_71_);fill:url(#SVGID_79_);}
	.st64{clip-path:url(#SVGID_71_);fill:url(#SVGID_80_);}
	.st65{fill:#FFFFFF;}
	.st66{clip-path:url(#SVGID_83_);fill:url(#SVGID_84_);}
	.st67{clip-path:url(#SVGID_83_);fill:url(#SVGID_85_);}
	.st68{clip-path:url(#SVGID_83_);fill:url(#SVGID_86_);}
	.st69{clip-path:url(#SVGID_83_);fill:url(#SVGID_87_);}
	.st70{clip-path:url(#SVGID_83_);fill:url(#SVGID_88_);}
	.st71{clip-path:url(#SVGID_83_);fill:url(#SVGID_89_);}
	.st72{clip-path:url(#SVGID_83_);fill:url(#SVGID_90_);}
	.st73{clip-path:url(#SVGID_83_);fill:url(#SVGID_91_);}
	.st74{clip-path:url(#SVGID_83_);fill:url(#SVGID_92_);}
</style>
<g>
	<g>
		<path class="st65" d="M466.03,66.27c0.04-26.29,16.82-49.52,39.6-55.62c20.56-5.5,40.5,1.95,53.75,20.08
			c16.65,22.79,15.22,54.88-3.73,75.31c-26.21,28.27-69.22,20.36-85.18-17.29c-1.64-3.87-2.71-7.94-3.55-12.06
			C466.18,72.98,465.92,69.25,466.03,66.27z M564.37,71.93c-0.01-20.76-4.41-32.07-14.45-43.22c-14.1-15.67-39.22-18.25-56.2-5.77
			c-24.25,17.81-28.59,53.99-9.26,77.24c14.87,17.88,37.71,22.21,56.86,9.88C557.16,99.87,563.96,84.34,564.37,71.93z"/>
		<path class="st65" d="M305.25,9.17c11.03-0.49,20.9,2.17,29.56,8.76c1.25,0.95,2.41,2.09,3.35,3.34c0.86,1.16,0.61,2.52-0.47,3.54
			c-0.96,0.91-2.11,0.87-3.22,0.27c-0.63-0.34-1.23-0.77-1.79-1.22c-14.91-11.89-31.38-11.27-48.06-5.23
			c-8.7,3.15-12.8,11.94-12.26,22.82c0.4,8.15,4.64,13.11,13.86,16.33c9.19,3.21,18.8,4.72,28.18,7.16
			c7.42,1.93,14.86,3.88,21.35,8.28c13.45,9.12,13.79,31.53,0.76,41.36c-8.56,6.45-18.56,8.12-28.71,8.36
			c-14.18,0.35-27.61-2.8-39.22-11.57c-1.38-1.04-2.71-2.17-3.99-3.33c-1.39-1.26-2.34-2.74-0.81-4.5c1.52-1.75,3.07-1.07,4.55,0.15
			c5.05,4.16,10.36,7.91,16.64,10.04c13.15,4.45,26.45,5.02,39.65,0.67c11.85-3.9,17-13.48,14.35-25.66
			c-1.06-4.89-3.98-8.61-8.31-11.19c-7.33-4.37-15.48-6.41-23.7-8.18c-7.5-1.61-15.01-3.2-22.29-5.69
			c-12.84-4.39-18.47-11.16-19.06-22.94c-0.59-11.74,6.11-22.53,17.03-27.45C289.9,10.02,297.54,8.76,305.25,9.17z"/>
		<path class="st65" d="M175.43,9.14c10.39-0.46,20.11,2.23,28.73,8.58c0.93,0.68,1.85,1.4,2.66,2.22c1.32,1.33,2.14,2.93,0.7,4.6
			c-1.5,1.75-3.23,0.99-4.6-0.21c-3.64-3.2-7.62-5.77-12.27-7.19c-12.19-3.72-24.33-3.46-36.14,1.29
			c-8.99,3.61-13.1,11.84-12.53,23.54c0.37,7.65,4.8,12.66,13.86,15.83c9.74,3.4,19.96,4.88,29.86,7.6
			c7.26,1.99,14.53,3.94,20.7,8.64c12.09,9.21,12.39,30.06,0.57,39.72c-9.72,7.94-21.37,9.44-33.17,9.18
			c-13.23-0.29-25.8-3.53-36.43-12.1c-1.35-1.09-2.65-2.25-3.86-3.49c-1.16-1.19-1.28-2.57-0.09-3.87c1.2-1.3,2.53-1.21,3.88-0.23
			c2.92,2.13,5.66,4.55,8.77,6.37c15.16,8.84,31.35,9.8,47.79,4.88c11.97-3.58,16.95-12.72,14.77-24.96
			c-0.94-5.29-3.84-9.29-8.48-12.03c-7.35-4.34-15.49-6.38-23.71-8.14c-7.65-1.64-15.28-3.3-22.7-5.84
			c-10.42-3.56-17.74-9.77-18.38-21.59c-0.59-10.92,3.18-19.9,12.42-26.12C156.07,10.24,165.45,8.87,175.43,9.14z"/>
		<path class="st65" d="M628.16,9.08c9.53-0.36,20.12,2.23,29.13,9.86c1.69,1.44,3.82,2.97,1.97,5.33
			c-1.93,2.44-3.83,0.49-5.57-0.81c-15.12-11.32-31.72-11.32-48.15-4.51c-13.63,5.64-16.5,25.51-6.02,34.64
			c2.36,2.05,5.18,3.11,8.05,4.16c11.19,4.13,23.12,5.37,34.47,8.9c5.7,1.77,11.17,3.91,16.14,7.33
			c13.44,9.26,11.98,35.04-4.2,43.03c-16.26,8.03-32.99,7.45-49.82,2.05c-6.27-2.01-11.84-5.39-16.83-9.71
			c-1.73-1.5-4.3-2.96-2.29-5.59c2.09-2.75,4-0.5,5.81,0.94c17.29,13.75,36.56,15.61,56.96,8.91c8.02-2.63,12.35-8.76,12.97-17.31
			c0.66-9.19-2.8-15.97-11.25-20.16c-8.03-3.98-16.7-5.66-25.3-7.63c-6.92-1.58-13.82-3.24-20.51-5.64
			c-17.06-6.13-22.47-27.5-10.49-41.28C601.97,11.49,613.58,9.05,628.16,9.08z"/>
		<path class="st65" d="M358.22,65.27c0.03-24.52,13.78-45.96,34.9-53.26c19.77-6.83,42.66-3.26,55.4,14.95
			c1.51,2.16,4.81,4.94,1.48,7.42c-3.6,2.67-4.81-1.66-6.35-3.73c-6.83-9.16-16.07-13.95-27.22-15.2
			c-32.33-3.62-50.13,21.5-51.82,45.59c-1.36,19.42,5.51,35.56,21.21,47.38c19.33,14.56,47.12,9.91,61.13-9.94
			c0.33-0.47,0.65-0.96,0.99-1.43c1.16-1.61,2.72-2.31,4.51-1.29c1.98,1.13,1.55,2.9,0.67,4.55c-2.36,4.43-5.85,7.93-9.71,11
			c-25.3,20.16-60.93,13.09-76.81-15.18C361.1,86.35,357.75,76.01,358.22,65.27z"/>
		<path class="st65" d="M235.66,65.75c0-16.22,0-32.44,0.01-48.66c0-1.45,0-2.9,0.16-4.34c0.18-1.67,1.22-2.58,2.93-2.57
			c1.71,0.01,2.72,0.96,2.96,2.59c0.19,1.28,0.19,2.6,0.19,3.9c0.01,32.88,0.01,65.75,0.01,98.63c0,0.72,0.01,1.45-0.03,2.17
			c-0.11,2.13-0.37,4.21-3.2,4.24c-2.99,0.04-3-2.18-3.01-4.26c-0.03-14.48-0.02-28.97-0.02-43.45
			C235.66,71.26,235.66,68.51,235.66,65.75z"/>
	</g>
	<path class="st65" d="M0,118.27L0,118.27c0,7.19,5.83,13.02,13.02,13.02h1.09c7.19,0,13.02-5.83,13.02-13.02v0
		c0-7.19-5.83-13.02-13.02-13.02h-1.09C5.83,105.25,0,111.08,0,118.27z"/>
	<path class="st65" d="M51.54,70.54c-12.83,0-23.12-10.86-22.18-23.89c0.84-11.7,10.91-20.6,22.64-20.6h0.07
		c6.6,0,11.96-5.35,11.96-11.96v-0.03c0-7.76-6.29-14.05-14.05-14.05l-1.7,0C21.61,0.01,0,21.62,0,48.27l0,0.02
		c0,26.67,21.62,48.28,48.28,48.28h2.19c7.48,0,13.55-6.06,13.55-13.55V83c0-6.88-5.58-12.46-12.46-12.46H51.54z"/>
	<path class="st65" d="M51.17,34.72h-0.64c-7.75,0-14.02,6.28-14.02,14.02v0.02c0,6.63,5.37,12,12,12h0.03
		c11.72,0,21.79,8.9,22.63,20.59c0.94,13.03-9.35,23.9-22.18,23.9h-0.02c-6.88,0-12.46,5.58-12.46,12.46v0.03
		c0,7.48,6.06,13.55,13.55,13.55h1.12c26.66,0,48.27-21.61,48.27-48.27v-0.03C99.44,56.33,77.83,34.72,51.17,34.72z"/>
	<path class="st65" d="M72.16,13.02L72.16,13.02c0,7.19,5.83,13.02,13.02,13.02h1.09c7.19,0,13.02-5.83,13.02-13.02v0
		C99.28,5.83,93.45,0,86.26,0h-1.09C77.99,0,72.16,5.83,72.16,13.02z"/>
</g>
</svg>
