<?xml version="1.0" encoding="utf-8"?>
<!-- Generator: Adobe Illustrator 24.0.0, SVG Export Plug-In . SVG Version: 6.00 Build 0)  -->
<svg version="1.1" id="Capa_1" xmlns="http://www.w3.org/2000/svg" xmlns:xlink="http://www.w3.org/1999/xlink" x="0px" y="0px"
	 viewBox="0 0 483.25 638.07" style="enable-background:new 0 0 483.25 638.07;" xml:space="preserve">
<style type="text/css">
	.st0{clip-path:url(#SVGID_2_);fill:url(#SVGID_3_);}
	.st1{clip-path:url(#SVGID_2_);fill:url(#SVGID_4_);}
	.st2{clip-path:url(#SVGID_2_);fill:url(#SVGID_5_);}
	.st3{clip-path:url(#SVGID_2_);fill:url(#SVGID_6_);}
	.st4{clip-path:url(#SVGID_2_);fill:url(#SVGID_7_);}
	.st5{clip-path:url(#SVGID_2_);fill:url(#SVGID_8_);}
	.st6{clip-path:url(#SVGID_2_);fill:url(#SVGID_9_);}
	.st7{clip-path:url(#SVGID_2_);fill:url(#SVGID_10_);}
	.st8{clip-path:url(#SVGID_2_);fill:url(#SVGID_11_);}
	.st9{opacity:0.5;fill:#222769;}
	.st10{clip-path:url(#SVGID_13_);fill:url(#SVGID_14_);}
	.st11{clip-path:url(#SVGID_13_);fill:url(#SVGID_15_);}
	.st12{clip-path:url(#SVGID_13_);fill:url(#SVGID_16_);}
	.st13{clip-path:url(#SVGID_13_);fill:url(#SVGID_17_);}
	.st14{clip-path:url(#SVGID_13_);fill:url(#SVGID_18_);}
	.st15{clip-path:url(#SVGID_13_);fill:url(#SVGID_19_);}
	.st16{clip-path:url(#SVGID_13_);fill:url(#SVGID_20_);}
	.st17{clip-path:url(#SVGID_13_);fill:url(#SVGID_21_);}
	.st18{clip-path:url(#SVGID_13_);fill:url(#SVGID_22_);}
	.st19{clip-path:url(#SVGID_25_);fill:url(#SVGID_26_);}
	.st20{clip-path:url(#SVGID_25_);fill:url(#SVGID_27_);}
	.st21{clip-path:url(#SVGID_25_);fill:url(#SVGID_28_);}
	.st22{clip-path:url(#SVGID_25_);fill:url(#SVGID_29_);}
	.st23{clip-path:url(#SVGID_25_);fill:url(#SVGID_30_);}
	.st24{clip-path:url(#SVGID_25_);fill:url(#SVGID_31_);}
	.st25{clip-path:url(#SVGID_25_);fill:url(#SVGID_32_);}
	.st26{clip-path:url(#SVGID_25_);fill:url(#SVGID_33_);}
	.st27{clip-path:url(#SVGID_25_);fill:url(#SVGID_34_);}
	.st28{opacity:0.7;fill:#222769;}
	.st29{clip-path:url(#SVGID_37_);fill:url(#SVGID_38_);}
	.st30{clip-path:url(#SVGID_37_);fill:url(#SVGID_39_);}
	.st31{clip-path:url(#SVGID_37_);fill:url(#SVGID_40_);}
	.st32{clip-path:url(#SVGID_37_);fill:url(#SVGID_41_);}
	.st33{clip-path:url(#SVGID_37_);fill:url(#SVGID_42_);}
	.st34{clip-path:url(#SVGID_37_);fill:url(#SVGID_43_);}
	.st35{clip-path:url(#SVGID_37_);fill:url(#SVGID_44_);}
	.st36{clip-path:url(#SVGID_37_);fill:url(#SVGID_45_);}
	.st37{clip-path:url(#SVGID_37_);fill:url(#SVGID_46_);}
	.st38{clip-path:url(#SVGID_48_);fill:url(#SVGID_49_);}
	.st39{clip-path:url(#SVGID_48_);fill:url(#SVGID_50_);}
	.st40{clip-path:url(#SVGID_48_);fill:url(#SVGID_51_);}
	.st41{clip-path:url(#SVGID_48_);fill:url(#SVGID_52_);}
	.st42{clip-path:url(#SVGID_48_);fill:url(#SVGID_53_);}
	.st43{clip-path:url(#SVGID_48_);fill:url(#SVGID_54_);}
	.st44{clip-path:url(#SVGID_48_);fill:url(#SVGID_55_);}
	.st45{clip-path:url(#SVGID_48_);fill:url(#SVGID_56_);}
	.st46{clip-path:url(#SVGID_48_);fill:url(#SVGID_57_);}
	.st47{clip-path:url(#SVGID_59_);fill:url(#SVGID_60_);}
	.st48{clip-path:url(#SVGID_59_);fill:url(#SVGID_61_);}
	.st49{clip-path:url(#SVGID_59_);fill:url(#SVGID_62_);}
	.st50{clip-path:url(#SVGID_59_);fill:url(#SVGID_63_);}
	.st51{clip-path:url(#SVGID_59_);fill:url(#SVGID_64_);}
	.st52{clip-path:url(#SVGID_59_);fill:url(#SVGID_65_);}
	.st53{clip-path:url(#SVGID_59_);fill:url(#SVGID_66_);}
	.st54{clip-path:url(#SVGID_59_);fill:url(#SVGID_67_);}
	.st55{clip-path:url(#SVGID_59_);fill:url(#SVGID_68_);}
	.st56{clip-path:url(#SVGID_71_);fill:url(#SVGID_72_);}
	.st57{clip-path:url(#SVGID_71_);fill:url(#SVGID_73_);}
	.st58{clip-path:url(#SVGID_71_);fill:url(#SVGID_74_);}
	.st59{clip-path:url(#SVGID_71_);fill:url(#SVGID_75_);}
	.st60{clip-path:url(#SVGID_71_);fill:url(#SVGID_76_);}
	.st61{clip-path:url(#SVGID_71_);fill:url(#SVGID_77_);}
	.st62{clip-path:url(#SVGID_71_);fill:url(#SVGID_78_);}
	.st63{clip-path:url(#SVGID_71_);fill:url(#SVGID_79_);}
	.st64{clip-path:url(#SVGID_71_);fill:url(#SVGID_80_);}
	.st65{fill:#FFFFFF;}
	.st66{clip-path:url(#SVGID_83_);fill:url(#SVGID_84_);}
	.st67{clip-path:url(#SVGID_83_);fill:url(#SVGID_85_);}
	.st68{clip-path:url(#SVGID_83_);fill:url(#SVGID_86_);}
	.st69{clip-path:url(#SVGID_83_);fill:url(#SVGID_87_);}
	.st70{clip-path:url(#SVGID_83_);fill:url(#SVGID_88_);}
	.st71{clip-path:url(#SVGID_83_);fill:url(#SVGID_89_);}
	.st72{clip-path:url(#SVGID_83_);fill:url(#SVGID_90_);}
	.st73{clip-path:url(#SVGID_83_);fill:url(#SVGID_91_);}
	.st74{clip-path:url(#SVGID_83_);fill:url(#SVGID_92_);}
</style>
<g>
	<path class="st65" d="M0,574.79L0,574.79c0,34.95,28.33,63.28,63.28,63.28h5.27c34.95,0,63.28-28.33,63.28-63.28v0
		c0-34.95-28.33-63.28-63.28-63.28h-5.27C28.33,511.51,0,539.84,0,574.79z"/>
	<path class="st65" d="M250.48,342.79c-62.35,0-112.37-52.79-107.81-116.11c4.09-56.85,53.02-100.1,110.02-100.1h0.32
		c32.1,0,58.12-26.02,58.12-58.12V68.3c0-37.71-30.57-68.27-68.27-68.27l-8.27,0C105.02,0.03,0,105.05,0,234.61l0,0.09
		C0,364.3,105.06,469.35,234.65,469.35h10.64c36.36,0,65.83-29.47,65.83-65.83v-0.17c0-33.45-27.11-60.56-60.56-60.56H250.48z"/>
	<path class="st65" d="M248.67,168.75h-3.12c-37.64,0-68.16,30.51-68.16,68.16v0.09c0,32.2,26.11,58.31,58.31,58.31h0.16
		c56.98,0,105.88,43.23,109.99,100.07c4.58,63.34-45.45,116.14-107.81,116.14h-0.08c-33.45,0-60.56,27.11-60.56,60.56v0.17
		c0,36.36,29.47,65.83,65.83,65.83h5.44c129.55,0,234.58-105.02,234.58-234.58v-0.17C483.25,273.77,378.23,168.75,248.67,168.75z"/>
	<path class="st65" d="M350.68,63.28L350.68,63.28c0,34.95,28.33,63.28,63.28,63.28h5.27c34.95,0,63.28-28.33,63.28-63.28v0
		C482.51,28.33,454.18,0,419.23,0h-5.27C379.01,0,350.68,28.33,350.68,63.28z"/>
</g>
</svg>
